<svg xmlns="http://www.w3.org/2000/svg" width="600" height="350" style="background:#0a0a14;font-family:monospace">
<line x1="65" y1="305.0" x2="580" y2="305.0" stroke="#222" stroke-width="0.5"/>
<text x="60" y="309.0" fill="#999" font-size="10" text-anchor="end">-0.0000</text>
<line x1="65" y1="237.5" x2="580" y2="237.5" stroke="#222" stroke-width="0.5"/>
<text x="60" y="241.5" fill="#999" font-size="10" text-anchor="end">0.0001</text>
<line x1="65" y1="170.0" x2="580" y2="170.0" stroke="#222" stroke-width="0.5"/>
<text x="60" y="174.0" fill="#999" font-size="10" text-anchor="end">0.0002</text>
<line x1="65" y1="102.5" x2="580" y2="102.5" stroke="#222" stroke-width="0.5"/>
<text x="60" y="106.5" fill="#999" font-size="10" text-anchor="end">0.0003</text>
<line x1="65" y1="35.0" x2="580" y2="35.0" stroke="#222" stroke-width="0.5"/>
<text x="60" y="39.0" fill="#999" font-size="10" text-anchor="end">0.0004</text>
<polyline points="65.0,282.5 65.5,282.5 66.1,265.4 66.7,265.4 67.4,265.4 68.1,265.4 68.9,265.4 69.8,265.4 70.8,265.4 71.9,265.4 73.1,265.4 74.4,265.4 75.9,265.4 77.4,248.3 79.2,248.3 81.1,248.3 83.2,248.3 85.5,248.3 88.0,248.3 90.8,248.3 93.9,231.2 97.2,231.2 100.9,231.2 105.0,231.2 109.4,231.2 114.3,214.0 119.7,214.0 125.6,214.0 132.1,214.0 139.2,214.0 147.0,196.8 155.6,196.8 165.1,196.8 175.4,179.6 186.8,179.6 199.4,179.6 213.1,162.3 228.2,162.3 244.8,162.3 263.0,145.0 283.1,145.0 305.1,127.7 329.2,127.7 355.8,127.7 385.0,110.2 417.0,92.7 452.2,92.7 490.9,75.2 533.3,75.2 580.0,57.5" fill="none" stroke="#4fc3f7" stroke-width="2" opacity="0.9"/>
<line x1="65" y1="35" x2="65" y2="305" stroke="#555" stroke-width="1"/>
<line x1="65" y1="305" x2="580" y2="305" stroke="#555" stroke-width="1"/>
<text x="322.5" y="345" fill="#aaa" font-size="12" text-anchor="middle">h/w ratio</text>
<text x="12" y="170.0" fill="#aaa" font-size="12" text-anchor="middle" transform="rotate(-90,12,170.0)">charge leak frac</text>
<text x="322.5" y="25" fill="#ccc" font-size="14" text-anchor="middle">Charge leakage vs slot aspect ratio</text>
<line x1="460" y1="50" x2="475" y2="50" stroke="#4fc3f7" stroke-width="2"/>
<text x="480" y="54" fill="#bbb" font-size="10">Q_leak frac</text>
</svg>