<svg xmlns="http://www.w3.org/2000/svg" width="600" height="350" style="background:#0a0a14;font-family:monospace">
<line x1="65" y1="305.0" x2="580" y2="305.0" stroke="#222" stroke-width="0.5"/>
<text x="60" y="309.0" fill="#999" font-size="10" text-anchor="end">0.0012</text>
<line x1="65" y1="215.0" x2="580" y2="215.0" stroke="#222" stroke-width="0.5"/>
<text x="60" y="219.0" fill="#999" font-size="10" text-anchor="end">0.0012</text>
<line x1="65" y1="215.0" x2="580" y2="215.0" stroke="#222" stroke-width="0.5"/>
<text x="60" y="219.0" fill="#999" font-size="10" text-anchor="end">0.0012</text>
<line x1="65" y1="125.0" x2="580" y2="125.0" stroke="#222" stroke-width="0.5"/>
<text x="60" y="129.0" fill="#999" font-size="10" text-anchor="end">0.0012</text>
<line x1="65" y1="35.0" x2="580" y2="35.0" stroke="#222" stroke-width="0.5"/>
<text x="60" y="39.0" fill="#999" font-size="10" text-anchor="end">0.0012</text>
<polyline points="65.0,305.0 65.5,305.0 66.1,305.0 66.7,305.0 67.4,305.0 68.1,305.0 68.9,305.0 69.8,305.0 70.8,305.0 71.9,305.0 73.1,125.0 74.4,305.0 75.9,305.0 77.4,305.0 79.2,125.0 81.1,125.0 83.2,305.0 85.5,35.0 88.0,305.0 90.8,305.0 93.9,305.0 97.2,305.0 100.9,305.0 105.0,305.0 109.4,305.0 114.3,305.0 119.7,125.0 125.6,305.0 132.1,305.0 139.2,305.0 147.0,305.0 155.6,305.0 165.1,305.0 175.4,305.0 186.8,305.0 199.4,305.0 213.1,125.0 228.2,305.0 244.8,305.0 263.0,305.0 283.1,125.0 305.1,305.0 329.2,305.0 355.8,305.0 385.0,305.0 417.0,125.0 452.2,305.0 490.9,305.0 533.3,305.0 580.0,125.0" fill="none" stroke="#ff6e40" stroke-width="2" opacity="0.9"/>
<line x1="65" y1="35" x2="65" y2="305" stroke="#555" stroke-width="1"/>
<line x1="65" y1="305" x2="580" y2="305" stroke="#555" stroke-width="1"/>
<text x="322.5" y="345" fill="#aaa" font-size="12" text-anchor="middle">h/w ratio</text>
<text x="12" y="170.0" fill="#aaa" font-size="12" text-anchor="middle" transform="rotate(-90,12,170.0)">δμ/μ</text>
<text x="322.5" y="25" fill="#ccc" font-size="14" text-anchor="middle">Moment enhancement vs slot aspect ratio</text>
<line x1="460" y1="50" x2="475" y2="50" stroke="#ff6e40" stroke-width="2"/>
<text x="480" y="54" fill="#bbb" font-size="10">δμ/μ</text>
<line x1="65" y1="215.0" x2="580" y2="215.0" stroke="#4c4" stroke-width="1" stroke-dasharray="4,3"/>
<text x="582" y="219.0" fill="#4c4" font-size="9">α/2π</text>
</svg>