<svg xmlns="http://www.w3.org/2000/svg" width="600" height="350" style="background:#0a0a14;font-family:monospace">
<line x1="65" y1="305.0" x2="580" y2="305.0" stroke="#222" stroke-width="0.5"/>
<text x="60" y="309.0" fill="#999" font-size="10" text-anchor="end">-0.1000</text>
<line x1="65" y1="237.5" x2="580" y2="237.5" stroke="#222" stroke-width="0.5"/>
<text x="60" y="241.5" fill="#999" font-size="10" text-anchor="end">0.2000</text>
<line x1="65" y1="170.0" x2="580" y2="170.0" stroke="#222" stroke-width="0.5"/>
<text x="60" y="174.0" fill="#999" font-size="10" text-anchor="end">0.5000</text>
<line x1="65" y1="102.5" x2="580" y2="102.5" stroke="#222" stroke-width="0.5"/>
<text x="60" y="106.5" fill="#999" font-size="10" text-anchor="end">0.8000</text>
<line x1="65" y1="35.0" x2="580" y2="35.0" stroke="#222" stroke-width="0.5"/>
<text x="60" y="39.0" fill="#999" font-size="10" text-anchor="end">1.1000</text>
<polyline points="65.0,57.5 65.5,57.5 66.1,57.5 66.7,57.5 67.4,57.5 68.1,57.5 68.9,57.5 69.8,57.5 70.8,57.5 71.9,57.5 73.1,57.5 74.4,57.5 75.9,57.5 77.4,57.5 79.2,57.5 81.1,57.5 83.2,57.5 85.5,57.5 88.0,57.5 90.8,57.5 93.9,57.5 97.2,57.5 100.9,57.5 105.0,57.5 109.4,57.5 114.3,57.5 119.7,57.5 125.6,57.5 132.1,57.5 139.2,57.5 147.0,57.5 155.6,57.5 165.1,57.5 175.4,57.5 186.8,57.5 199.4,57.5 213.1,57.5 228.2,57.5 244.8,57.5 263.0,57.5 283.1,57.5 305.1,57.5 329.2,57.5 355.8,57.5 385.0,57.5 417.0,57.5 452.2,57.5 490.9,57.5 533.3,57.5 580.0,57.5" fill="none" stroke="#ff6e40" stroke-width="2" opacity="0.9"/>
<polyline points="65.0,282.5 65.5,282.5 66.1,282.5 66.7,282.5 67.4,282.5 68.1,282.5 68.9,282.5 69.8,282.5 70.8,282.5 71.9,282.5 73.1,282.5 74.4,282.5 75.9,282.5 77.4,282.5 79.2,282.5 81.1,282.5 83.2,282.5 85.5,282.5 88.0,282.5 90.8,282.5 93.9,282.5 97.2,282.5 100.9,282.5 105.0,282.5 109.4,282.5 114.3,282.5 119.7,282.5 125.6,282.5 132.1,282.5 139.2,282.5 147.0,282.5 155.6,282.5 165.1,282.5 175.4,282.5 186.8,282.5 199.4,282.5 213.1,282.5 228.2,282.5 244.8,282.5 263.0,282.5 283.1,282.5 305.1,282.5 329.2,282.5 355.8,282.5 385.0,282.5 417.0,282.5 452.2,282.5 490.9,282.5 533.3,282.5 580.0,282.5" fill="none" stroke="#fdd835" stroke-width="2" opacity="0.9"/>
<line x1="65" y1="35" x2="65" y2="305" stroke="#555" stroke-width="1"/>
<line x1="65" y1="305" x2="580" y2="305" stroke="#555" stroke-width="1"/>
<text x="322.5" y="345" fill="#aaa" font-size="12" text-anchor="middle">h/w ratio</text>
<text x="12" y="170.0" fill="#aaa" font-size="12" text-anchor="middle" transform="rotate(-90,12,170.0)">survival</text>
<text x="322.5" y="25" fill="#ccc" font-size="14" text-anchor="middle">Mode survival vs slot aspect ratio</text>
<line x1="460" y1="50" x2="475" y2="50" stroke="#ff6e40" stroke-width="2"/>
<text x="480" y="54" fill="#bbb" font-size="10">electron</text>
<line x1="460" y1="66" x2="475" y2="66" stroke="#fdd835" stroke-width="2"/>
<text x="480" y="70" fill="#bbb" font-size="10">ghost</text>
<line x1="65" y1="282.2" x2="580" y2="282.2" stroke="#4c4" stroke-width="1" stroke-dasharray="4,3"/>
<text x="582" y="286.2" fill="#4c4" font-size="9">α/2π</text>
</svg>