<?xml version="1.0" encoding="utf-8" standalone="no"?>
<!DOCTYPE svg PUBLIC "-//W3C//DTD SVG 1.1//EN"
  "http://www.w3.org/Graphics/SVG/1.1/DTD/svg11.dtd">
<svg xmlns:xlink="http://www.w3.org/1999/xlink" width="998.805437pt" height="352.838125pt" viewBox="0 0 998.805437 352.838125" xmlns="http://www.w3.org/2000/svg" version="1.1">
 <metadata>
  <rdf:RDF xmlns:dc="http://purl.org/dc/elements/1.1/" xmlns:cc="http://creativecommons.org/ns#" xmlns:rdf="http://www.w3.org/1999/02/22-rdf-syntax-ns#">
   <cc:Work>
    <dc:type rdf:resource="http://purl.org/dc/dcmitype/StillImage"/>
    <dc:date>2026-04-02T16:40:02.133965</dc:date>
    <dc:format>image/svg+xml</dc:format>
    <dc:creator>
     <cc:Agent>
      <dc:title>Matplotlib v3.10.8, https://matplotlib.org/</dc:title>
     </cc:Agent>
    </dc:creator>
   </cc:Work>
  </rdf:RDF>
 </metadata>
 <defs>
  <style type="text/css">*{stroke-linejoin: round; stroke-linecap: butt}</style>
 </defs>
 <g id="figure_1">
  <g id="patch_1">
   <path d="M 0 352.838125 
L 998.805437 352.838125 
L 998.805437 -0 
L 0 -0 
z
" style="fill: #ffffff"/>
  </g>
  <g id="axes_1">
   <g id="patch_2">
    <path d="M 58.523438 315.16 
L 493.005438 315.16 
L 493.005438 50.83125 
L 58.523438 50.83125 
z
" style="fill: #ffffff"/>
   </g>
   <g id="matplotlib.axis_1">
    <g id="xtick_1">
     <g id="line2d_1">
      <defs>
       <path id="mf35f3ace07" d="M 0 0 
L 0 3.5 
" style="stroke: #000000; stroke-width: 0.8"/>
      </defs>
      <g>
       <use xlink:href="#mf35f3ace07" x="78.272619" y="315.16" style="stroke: #000000; stroke-width: 0.8"/>
      </g>
     </g>
     <g id="text_1">
      <!-- 0 -->
      <g transform="translate(75.091369 329.758438) scale(0.1 -0.1)">
       <defs>
        <path id="DejaVuSans-30" d="M 2034 4250 
Q 1547 4250 1301 3770 
Q 1056 3291 1056 2328 
Q 1056 1369 1301 889 
Q 1547 409 2034 409 
Q 2525 409 2770 889 
Q 3016 1369 3016 2328 
Q 3016 3291 2770 3770 
Q 2525 4250 2034 4250 
z
M 2034 4750 
Q 2819 4750 3233 4129 
Q 3647 3509 3647 2328 
Q 3647 1150 3233 529 
Q 2819 -91 2034 -91 
Q 1250 -91 836 529 
Q 422 1150 422 2328 
Q 422 3509 836 4129 
Q 1250 4750 2034 4750 
z
" transform="scale(0.015625)"/>
       </defs>
       <use xlink:href="#DejaVuSans-30"/>
      </g>
     </g>
    </g>
    <g id="xtick_2">
     <g id="line2d_2">
      <g>
       <use xlink:href="#mf35f3ace07" x="133.238814" y="315.16" style="stroke: #000000; stroke-width: 0.8"/>
      </g>
     </g>
     <g id="text_2">
      <!-- 50 -->
      <g transform="translate(126.876314 329.758438) scale(0.1 -0.1)">
       <defs>
        <path id="DejaVuSans-35" d="M 691 4666 
L 3169 4666 
L 3169 4134 
L 1269 4134 
L 1269 2991 
Q 1406 3038 1543 3061 
Q 1681 3084 1819 3084 
Q 2600 3084 3056 2656 
Q 3513 2228 3513 1497 
Q 3513 744 3044 326 
Q 2575 -91 1722 -91 
Q 1428 -91 1123 -41 
Q 819 9 494 109 
L 494 744 
Q 775 591 1075 516 
Q 1375 441 1709 441 
Q 2250 441 2565 725 
Q 2881 1009 2881 1497 
Q 2881 1984 2565 2268 
Q 2250 2553 1709 2553 
Q 1456 2553 1204 2497 
Q 953 2441 691 2322 
L 691 4666 
z
" transform="scale(0.015625)"/>
       </defs>
       <use xlink:href="#DejaVuSans-35"/>
       <use xlink:href="#DejaVuSans-30" transform="translate(63.623047 0)"/>
      </g>
     </g>
    </g>
    <g id="xtick_3">
     <g id="line2d_3">
      <g>
       <use xlink:href="#mf35f3ace07" x="188.205008" y="315.16" style="stroke: #000000; stroke-width: 0.8"/>
      </g>
     </g>
     <g id="text_3">
      <!-- 100 -->
      <g transform="translate(178.661258 329.758438) scale(0.1 -0.1)">
       <defs>
        <path id="DejaVuSans-31" d="M 794 531 
L 1825 531 
L 1825 4091 
L 703 3866 
L 703 4441 
L 1819 4666 
L 2450 4666 
L 2450 531 
L 3481 531 
L 3481 0 
L 794 0 
L 794 531 
z
" transform="scale(0.015625)"/>
       </defs>
       <use xlink:href="#DejaVuSans-31"/>
       <use xlink:href="#DejaVuSans-30" transform="translate(63.623047 0)"/>
       <use xlink:href="#DejaVuSans-30" transform="translate(127.246094 0)"/>
      </g>
     </g>
    </g>
    <g id="xtick_4">
     <g id="line2d_4">
      <g>
       <use xlink:href="#mf35f3ace07" x="243.171202" y="315.16" style="stroke: #000000; stroke-width: 0.8"/>
      </g>
     </g>
     <g id="text_4">
      <!-- 150 -->
      <g transform="translate(233.627452 329.758438) scale(0.1 -0.1)">
       <use xlink:href="#DejaVuSans-31"/>
       <use xlink:href="#DejaVuSans-35" transform="translate(63.623047 0)"/>
       <use xlink:href="#DejaVuSans-30" transform="translate(127.246094 0)"/>
      </g>
     </g>
    </g>
    <g id="xtick_5">
     <g id="line2d_5">
      <g>
       <use xlink:href="#mf35f3ace07" x="298.137396" y="315.16" style="stroke: #000000; stroke-width: 0.8"/>
      </g>
     </g>
     <g id="text_5">
      <!-- 200 -->
      <g transform="translate(288.593646 329.758438) scale(0.1 -0.1)">
       <defs>
        <path id="DejaVuSans-32" d="M 1228 531 
L 3431 531 
L 3431 0 
L 469 0 
L 469 531 
Q 828 903 1448 1529 
Q 2069 2156 2228 2338 
Q 2531 2678 2651 2914 
Q 2772 3150 2772 3378 
Q 2772 3750 2511 3984 
Q 2250 4219 1831 4219 
Q 1534 4219 1204 4116 
Q 875 4013 500 3803 
L 500 4441 
Q 881 4594 1212 4672 
Q 1544 4750 1819 4750 
Q 2544 4750 2975 4387 
Q 3406 4025 3406 3419 
Q 3406 3131 3298 2873 
Q 3191 2616 2906 2266 
Q 2828 2175 2409 1742 
Q 1991 1309 1228 531 
z
" transform="scale(0.015625)"/>
       </defs>
       <use xlink:href="#DejaVuSans-32"/>
       <use xlink:href="#DejaVuSans-30" transform="translate(63.623047 0)"/>
       <use xlink:href="#DejaVuSans-30" transform="translate(127.246094 0)"/>
      </g>
     </g>
    </g>
    <g id="xtick_6">
     <g id="line2d_6">
      <g>
       <use xlink:href="#mf35f3ace07" x="353.10359" y="315.16" style="stroke: #000000; stroke-width: 0.8"/>
      </g>
     </g>
     <g id="text_6">
      <!-- 250 -->
      <g transform="translate(343.55984 329.758438) scale(0.1 -0.1)">
       <use xlink:href="#DejaVuSans-32"/>
       <use xlink:href="#DejaVuSans-35" transform="translate(63.623047 0)"/>
       <use xlink:href="#DejaVuSans-30" transform="translate(127.246094 0)"/>
      </g>
     </g>
    </g>
    <g id="xtick_7">
     <g id="line2d_7">
      <g>
       <use xlink:href="#mf35f3ace07" x="408.069785" y="315.16" style="stroke: #000000; stroke-width: 0.8"/>
      </g>
     </g>
     <g id="text_7">
      <!-- 300 -->
      <g transform="translate(398.526035 329.758438) scale(0.1 -0.1)">
       <defs>
        <path id="DejaVuSans-33" d="M 2597 2516 
Q 3050 2419 3304 2112 
Q 3559 1806 3559 1356 
Q 3559 666 3084 287 
Q 2609 -91 1734 -91 
Q 1441 -91 1130 -33 
Q 819 25 488 141 
L 488 750 
Q 750 597 1062 519 
Q 1375 441 1716 441 
Q 2309 441 2620 675 
Q 2931 909 2931 1356 
Q 2931 1769 2642 2001 
Q 2353 2234 1838 2234 
L 1294 2234 
L 1294 2753 
L 1863 2753 
Q 2328 2753 2575 2939 
Q 2822 3125 2822 3475 
Q 2822 3834 2567 4026 
Q 2313 4219 1838 4219 
Q 1578 4219 1281 4162 
Q 984 4106 628 3988 
L 628 4550 
Q 988 4650 1302 4700 
Q 1616 4750 1894 4750 
Q 2613 4750 3031 4423 
Q 3450 4097 3450 3541 
Q 3450 3153 3228 2886 
Q 3006 2619 2597 2516 
z
" transform="scale(0.015625)"/>
       </defs>
       <use xlink:href="#DejaVuSans-33"/>
       <use xlink:href="#DejaVuSans-30" transform="translate(63.623047 0)"/>
       <use xlink:href="#DejaVuSans-30" transform="translate(127.246094 0)"/>
      </g>
     </g>
    </g>
    <g id="xtick_8">
     <g id="line2d_8">
      <g>
       <use xlink:href="#mf35f3ace07" x="463.035979" y="315.16" style="stroke: #000000; stroke-width: 0.8"/>
      </g>
     </g>
     <g id="text_8">
      <!-- 350 -->
      <g transform="translate(453.492229 329.758438) scale(0.1 -0.1)">
       <use xlink:href="#DejaVuSans-33"/>
       <use xlink:href="#DejaVuSans-35" transform="translate(63.623047 0)"/>
       <use xlink:href="#DejaVuSans-30" transform="translate(127.246094 0)"/>
      </g>
     </g>
    </g>
    <g id="text_9">
     <!-- $\theta_2$ (ring, degrees) -->
     <g transform="translate(231.614438 343.538125) scale(0.1 -0.1)">
      <defs>
       <path id="DejaVuSans-Oblique-3b8" d="M 2913 2219 
L 925 2219 
Q 791 1284 928 888 
Q 1100 400 1566 400 
Q 2034 400 2391 891 
Q 2703 1322 2913 2219 
z
M 3009 2750 
Q 3094 3638 2984 3950 
Q 2813 4444 2353 4444 
Q 1875 4444 1525 3956 
Q 1250 3563 1034 2750 
L 3009 2750 
z
M 2444 4913 
Q 3194 4913 3494 4250 
Q 3794 3591 3566 2422 
Q 3341 1256 2781 594 
Q 2225 -72 1475 -72 
Q 722 -72 425 594 
Q 128 1256 353 2422 
Q 581 3591 1134 4250 
Q 1691 4913 2444 4913 
z
" transform="scale(0.015625)"/>
       <path id="DejaVuSans-20" transform="scale(0.015625)"/>
       <path id="DejaVuSans-28" d="M 1984 4856 
Q 1566 4138 1362 3434 
Q 1159 2731 1159 2009 
Q 1159 1288 1364 580 
Q 1569 -128 1984 -844 
L 1484 -844 
Q 1016 -109 783 600 
Q 550 1309 550 2009 
Q 550 2706 781 3412 
Q 1013 4119 1484 4856 
L 1984 4856 
z
" transform="scale(0.015625)"/>
       <path id="DejaVuSans-72" d="M 2631 2963 
Q 2534 3019 2420 3045 
Q 2306 3072 2169 3072 
Q 1681 3072 1420 2755 
Q 1159 2438 1159 1844 
L 1159 0 
L 581 0 
L 581 3500 
L 1159 3500 
L 1159 2956 
Q 1341 3275 1631 3429 
Q 1922 3584 2338 3584 
Q 2397 3584 2469 3576 
Q 2541 3569 2628 3553 
L 2631 2963 
z
" transform="scale(0.015625)"/>
       <path id="DejaVuSans-69" d="M 603 3500 
L 1178 3500 
L 1178 0 
L 603 0 
L 603 3500 
z
M 603 4863 
L 1178 4863 
L 1178 4134 
L 603 4134 
L 603 4863 
z
" transform="scale(0.015625)"/>
       <path id="DejaVuSans-6e" d="M 3513 2113 
L 3513 0 
L 2938 0 
L 2938 2094 
Q 2938 2591 2744 2837 
Q 2550 3084 2163 3084 
Q 1697 3084 1428 2787 
Q 1159 2491 1159 1978 
L 1159 0 
L 581 0 
L 581 3500 
L 1159 3500 
L 1159 2956 
Q 1366 3272 1645 3428 
Q 1925 3584 2291 3584 
Q 2894 3584 3203 3211 
Q 3513 2838 3513 2113 
z
" transform="scale(0.015625)"/>
       <path id="DejaVuSans-67" d="M 2906 1791 
Q 2906 2416 2648 2759 
Q 2391 3103 1925 3103 
Q 1463 3103 1205 2759 
Q 947 2416 947 1791 
Q 947 1169 1205 825 
Q 1463 481 1925 481 
Q 2391 481 2648 825 
Q 2906 1169 2906 1791 
z
M 3481 434 
Q 3481 -459 3084 -895 
Q 2688 -1331 1869 -1331 
Q 1566 -1331 1297 -1286 
Q 1028 -1241 775 -1147 
L 775 -588 
Q 1028 -725 1275 -790 
Q 1522 -856 1778 -856 
Q 2344 -856 2625 -561 
Q 2906 -266 2906 331 
L 2906 616 
Q 2728 306 2450 153 
Q 2172 0 1784 0 
Q 1141 0 747 490 
Q 353 981 353 1791 
Q 353 2603 747 3093 
Q 1141 3584 1784 3584 
Q 2172 3584 2450 3431 
Q 2728 3278 2906 2969 
L 2906 3500 
L 3481 3500 
L 3481 434 
z
" transform="scale(0.015625)"/>
       <path id="DejaVuSans-2c" d="M 750 794 
L 1409 794 
L 1409 256 
L 897 -744 
L 494 -744 
L 750 256 
L 750 794 
z
" transform="scale(0.015625)"/>
       <path id="DejaVuSans-64" d="M 2906 2969 
L 2906 4863 
L 3481 4863 
L 3481 0 
L 2906 0 
L 2906 525 
Q 2725 213 2448 61 
Q 2172 -91 1784 -91 
Q 1150 -91 751 415 
Q 353 922 353 1747 
Q 353 2572 751 3078 
Q 1150 3584 1784 3584 
Q 2172 3584 2448 3432 
Q 2725 3281 2906 2969 
z
M 947 1747 
Q 947 1113 1208 752 
Q 1469 391 1925 391 
Q 2381 391 2643 752 
Q 2906 1113 2906 1747 
Q 2906 2381 2643 2742 
Q 2381 3103 1925 3103 
Q 1469 3103 1208 2742 
Q 947 2381 947 1747 
z
" transform="scale(0.015625)"/>
       <path id="DejaVuSans-65" d="M 3597 1894 
L 3597 1613 
L 953 1613 
Q 991 1019 1311 708 
Q 1631 397 2203 397 
Q 2534 397 2845 478 
Q 3156 559 3463 722 
L 3463 178 
Q 3153 47 2828 -22 
Q 2503 -91 2169 -91 
Q 1331 -91 842 396 
Q 353 884 353 1716 
Q 353 2575 817 3079 
Q 1281 3584 2069 3584 
Q 2775 3584 3186 3129 
Q 3597 2675 3597 1894 
z
M 3022 2063 
Q 3016 2534 2758 2815 
Q 2500 3097 2075 3097 
Q 1594 3097 1305 2825 
Q 1016 2553 972 2059 
L 3022 2063 
z
" transform="scale(0.015625)"/>
       <path id="DejaVuSans-73" d="M 2834 3397 
L 2834 2853 
Q 2591 2978 2328 3040 
Q 2066 3103 1784 3103 
Q 1356 3103 1142 2972 
Q 928 2841 928 2578 
Q 928 2378 1081 2264 
Q 1234 2150 1697 2047 
L 1894 2003 
Q 2506 1872 2764 1633 
Q 3022 1394 3022 966 
Q 3022 478 2636 193 
Q 2250 -91 1575 -91 
Q 1294 -91 989 -36 
Q 684 19 347 128 
L 347 722 
Q 666 556 975 473 
Q 1284 391 1588 391 
Q 1994 391 2212 530 
Q 2431 669 2431 922 
Q 2431 1156 2273 1281 
Q 2116 1406 1581 1522 
L 1381 1569 
Q 847 1681 609 1914 
Q 372 2147 372 2553 
Q 372 3047 722 3315 
Q 1072 3584 1716 3584 
Q 2034 3584 2315 3537 
Q 2597 3491 2834 3397 
z
" transform="scale(0.015625)"/>
       <path id="DejaVuSans-29" d="M 513 4856 
L 1013 4856 
Q 1481 4119 1714 3412 
Q 1947 2706 1947 2009 
Q 1947 1309 1714 600 
Q 1481 -109 1013 -844 
L 513 -844 
Q 928 -128 1133 580 
Q 1338 1288 1338 2009 
Q 1338 2731 1133 3434 
Q 928 4138 513 4856 
z
" transform="scale(0.015625)"/>
      </defs>
      <use xlink:href="#DejaVuSans-Oblique-3b8" transform="translate(0 0.234375)"/>
      <use xlink:href="#DejaVuSans-32" transform="translate(61.181641 -16.171875) scale(0.7)"/>
      <use xlink:href="#DejaVuSans-20" transform="translate(108.452148 0.234375)"/>
      <use xlink:href="#DejaVuSans-28" transform="translate(140.239258 0.234375)"/>
      <use xlink:href="#DejaVuSans-72" transform="translate(179.25293 0.234375)"/>
      <use xlink:href="#DejaVuSans-69" transform="translate(220.366211 0.234375)"/>
      <use xlink:href="#DejaVuSans-6e" transform="translate(248.149414 0.234375)"/>
      <use xlink:href="#DejaVuSans-67" transform="translate(311.52832 0.234375)"/>
      <use xlink:href="#DejaVuSans-2c" transform="translate(375.004883 0.234375)"/>
      <use xlink:href="#DejaVuSans-20" transform="translate(406.791992 0.234375)"/>
      <use xlink:href="#DejaVuSans-64" transform="translate(438.579102 0.234375)"/>
      <use xlink:href="#DejaVuSans-65" transform="translate(502.055664 0.234375)"/>
      <use xlink:href="#DejaVuSans-67" transform="translate(563.579102 0.234375)"/>
      <use xlink:href="#DejaVuSans-72" transform="translate(627.055664 0.234375)"/>
      <use xlink:href="#DejaVuSans-65" transform="translate(668.168945 0.234375)"/>
      <use xlink:href="#DejaVuSans-65" transform="translate(729.692383 0.234375)"/>
      <use xlink:href="#DejaVuSans-73" transform="translate(791.21582 0.234375)"/>
      <use xlink:href="#DejaVuSans-29" transform="translate(843.31543 0.234375)"/>
     </g>
    </g>
   </g>
   <g id="matplotlib.axis_2">
    <g id="ytick_1">
     <g id="line2d_9">
      <defs>
       <path id="me49a6523b5" d="M 0 0 
L -3.5 0 
" style="stroke: #000000; stroke-width: 0.8"/>
      </defs>
      <g>
       <use xlink:href="#me49a6523b5" x="58.523438" y="303.145429" style="stroke: #000000; stroke-width: 0.8"/>
      </g>
     </g>
     <g id="text_10">
      <!-- −1.00 -->
      <g transform="translate(20.878125 306.944647) scale(0.1 -0.1)">
       <defs>
        <path id="DejaVuSans-2212" d="M 678 2272 
L 4684 2272 
L 4684 1741 
L 678 1741 
L 678 2272 
z
" transform="scale(0.015625)"/>
        <path id="DejaVuSans-2e" d="M 684 794 
L 1344 794 
L 1344 0 
L 684 0 
L 684 794 
z
" transform="scale(0.015625)"/>
       </defs>
       <use xlink:href="#DejaVuSans-2212"/>
       <use xlink:href="#DejaVuSans-31" transform="translate(83.789062 0)"/>
       <use xlink:href="#DejaVuSans-2e" transform="translate(147.412109 0)"/>
       <use xlink:href="#DejaVuSans-30" transform="translate(179.199219 0)"/>
       <use xlink:href="#DejaVuSans-30" transform="translate(242.822266 0)"/>
      </g>
     </g>
    </g>
    <g id="ytick_2">
     <g id="line2d_10">
      <g>
       <use xlink:href="#me49a6523b5" x="58.523438" y="273.108024" style="stroke: #000000; stroke-width: 0.8"/>
      </g>
     </g>
     <g id="text_11">
      <!-- −0.75 -->
      <g transform="translate(20.878125 276.907243) scale(0.1 -0.1)">
       <defs>
        <path id="DejaVuSans-37" d="M 525 4666 
L 3525 4666 
L 3525 4397 
L 1831 0 
L 1172 0 
L 2766 4134 
L 525 4134 
L 525 4666 
z
" transform="scale(0.015625)"/>
       </defs>
       <use xlink:href="#DejaVuSans-2212"/>
       <use xlink:href="#DejaVuSans-30" transform="translate(83.789062 0)"/>
       <use xlink:href="#DejaVuSans-2e" transform="translate(147.412109 0)"/>
       <use xlink:href="#DejaVuSans-37" transform="translate(179.199219 0)"/>
       <use xlink:href="#DejaVuSans-35" transform="translate(242.822266 0)"/>
      </g>
     </g>
    </g>
    <g id="ytick_3">
     <g id="line2d_11">
      <g>
       <use xlink:href="#me49a6523b5" x="58.523438" y="243.07062" style="stroke: #000000; stroke-width: 0.8"/>
      </g>
     </g>
     <g id="text_12">
      <!-- −0.50 -->
      <g transform="translate(20.878125 246.869838) scale(0.1 -0.1)">
       <use xlink:href="#DejaVuSans-2212"/>
       <use xlink:href="#DejaVuSans-30" transform="translate(83.789062 0)"/>
       <use xlink:href="#DejaVuSans-2e" transform="translate(147.412109 0)"/>
       <use xlink:href="#DejaVuSans-35" transform="translate(179.199219 0)"/>
       <use xlink:href="#DejaVuSans-30" transform="translate(242.822266 0)"/>
      </g>
     </g>
    </g>
    <g id="ytick_4">
     <g id="line2d_12">
      <g>
       <use xlink:href="#me49a6523b5" x="58.523438" y="213.033215" style="stroke: #000000; stroke-width: 0.8"/>
      </g>
     </g>
     <g id="text_13">
      <!-- −0.25 -->
      <g transform="translate(20.878125 216.832434) scale(0.1 -0.1)">
       <use xlink:href="#DejaVuSans-2212"/>
       <use xlink:href="#DejaVuSans-30" transform="translate(83.789062 0)"/>
       <use xlink:href="#DejaVuSans-2e" transform="translate(147.412109 0)"/>
       <use xlink:href="#DejaVuSans-32" transform="translate(179.199219 0)"/>
       <use xlink:href="#DejaVuSans-35" transform="translate(242.822266 0)"/>
      </g>
     </g>
    </g>
    <g id="ytick_5">
     <g id="line2d_13">
      <g>
       <use xlink:href="#me49a6523b5" x="58.523438" y="182.995811" style="stroke: #000000; stroke-width: 0.8"/>
      </g>
     </g>
     <g id="text_14">
      <!-- 0.00 -->
      <g transform="translate(29.257813 186.79503) scale(0.1 -0.1)">
       <use xlink:href="#DejaVuSans-30"/>
       <use xlink:href="#DejaVuSans-2e" transform="translate(63.623047 0)"/>
       <use xlink:href="#DejaVuSans-30" transform="translate(95.410156 0)"/>
       <use xlink:href="#DejaVuSans-30" transform="translate(159.033203 0)"/>
      </g>
     </g>
    </g>
    <g id="ytick_6">
     <g id="line2d_14">
      <g>
       <use xlink:href="#me49a6523b5" x="58.523438" y="152.958406" style="stroke: #000000; stroke-width: 0.8"/>
      </g>
     </g>
     <g id="text_15">
      <!-- 0.25 -->
      <g transform="translate(29.257813 156.757625) scale(0.1 -0.1)">
       <use xlink:href="#DejaVuSans-30"/>
       <use xlink:href="#DejaVuSans-2e" transform="translate(63.623047 0)"/>
       <use xlink:href="#DejaVuSans-32" transform="translate(95.410156 0)"/>
       <use xlink:href="#DejaVuSans-35" transform="translate(159.033203 0)"/>
      </g>
     </g>
    </g>
    <g id="ytick_7">
     <g id="line2d_15">
      <g>
       <use xlink:href="#me49a6523b5" x="58.523438" y="122.921002" style="stroke: #000000; stroke-width: 0.8"/>
      </g>
     </g>
     <g id="text_16">
      <!-- 0.50 -->
      <g transform="translate(29.257813 126.720221) scale(0.1 -0.1)">
       <use xlink:href="#DejaVuSans-30"/>
       <use xlink:href="#DejaVuSans-2e" transform="translate(63.623047 0)"/>
       <use xlink:href="#DejaVuSans-35" transform="translate(95.410156 0)"/>
       <use xlink:href="#DejaVuSans-30" transform="translate(159.033203 0)"/>
      </g>
     </g>
    </g>
    <g id="ytick_8">
     <g id="line2d_16">
      <g>
       <use xlink:href="#me49a6523b5" x="58.523438" y="92.883598" style="stroke: #000000; stroke-width: 0.8"/>
      </g>
     </g>
     <g id="text_17">
      <!-- 0.75 -->
      <g transform="translate(29.257813 96.682816) scale(0.1 -0.1)">
       <use xlink:href="#DejaVuSans-30"/>
       <use xlink:href="#DejaVuSans-2e" transform="translate(63.623047 0)"/>
       <use xlink:href="#DejaVuSans-37" transform="translate(95.410156 0)"/>
       <use xlink:href="#DejaVuSans-35" transform="translate(159.033203 0)"/>
      </g>
     </g>
    </g>
    <g id="ytick_9">
     <g id="line2d_17">
      <g>
       <use xlink:href="#me49a6523b5" x="58.523438" y="62.846193" style="stroke: #000000; stroke-width: 0.8"/>
      </g>
     </g>
     <g id="text_18">
      <!-- 1.00 -->
      <g transform="translate(29.257813 66.645412) scale(0.1 -0.1)">
       <use xlink:href="#DejaVuSans-31"/>
       <use xlink:href="#DejaVuSans-2e" transform="translate(63.623047 0)"/>
       <use xlink:href="#DejaVuSans-30" transform="translate(95.410156 0)"/>
       <use xlink:href="#DejaVuSans-30" transform="translate(159.033203 0)"/>
      </g>
     </g>
    </g>
    <g id="text_19">
     <!-- $E_n / E_0$ -->
     <g transform="translate(14.798438 195.745625) rotate(-90) scale(0.1 -0.1)">
      <defs>
       <path id="DejaVuSans-Oblique-45" d="M 1081 4666 
L 4031 4666 
L 3928 4134 
L 1606 4134 
L 1338 2753 
L 3566 2753 
L 3463 2222 
L 1234 2222 
L 909 531 
L 3284 531 
L 3181 0 
L 172 0 
L 1081 4666 
z
" transform="scale(0.015625)"/>
       <path id="DejaVuSans-Oblique-6e" d="M 3566 2113 
L 3156 0 
L 2578 0 
L 2988 2091 
Q 3016 2238 3031 2350 
Q 3047 2463 3047 2528 
Q 3047 2791 2881 2937 
Q 2716 3084 2419 3084 
Q 1956 3084 1622 2776 
Q 1288 2469 1184 1941 
L 800 0 
L 225 0 
L 903 3500 
L 1478 3500 
L 1363 2950 
Q 1603 3253 1940 3418 
Q 2278 3584 2650 3584 
Q 3113 3584 3367 3334 
Q 3622 3084 3622 2631 
Q 3622 2519 3608 2391 
Q 3594 2263 3566 2113 
z
" transform="scale(0.015625)"/>
       <path id="DejaVuSans-2f" d="M 1625 4666 
L 2156 4666 
L 531 -594 
L 0 -594 
L 1625 4666 
z
" transform="scale(0.015625)"/>
      </defs>
      <use xlink:href="#DejaVuSans-Oblique-45" transform="translate(0 0.09375)"/>
      <use xlink:href="#DejaVuSans-Oblique-6e" transform="translate(63.183594 -16.3125) scale(0.7)"/>
      <use xlink:href="#DejaVuSans-2f" transform="translate(110.283203 0.09375)"/>
      <use xlink:href="#DejaVuSans-Oblique-45" transform="translate(143.974609 0.09375)"/>
      <use xlink:href="#DejaVuSans-30" transform="translate(207.158203 -16.3125) scale(0.7)"/>
     </g>
    </g>
   </g>
   <g id="line2d_18">
    <path d="M 78.272619 62.846193 
L 79.818544 62.981669 
L 81.364468 63.38779 
L 82.910392 64.063642 
L 84.456316 65.007699 
L 86.00224 66.217833 
L 87.548165 67.691315 
L 89.094089 69.424821 
L 90.640013 71.414444 
L 92.958899 74.869124 
L 95.277786 78.872312 
L 97.596672 83.403698 
L 99.915558 88.440298 
L 102.234445 93.956561 
L 105.326293 102.009021 
L 108.418141 110.791608 
L 111.50999 120.225143 
L 115.3748 132.802397 
L 120.012573 148.8117 
L 126.19627 171.176834 
L 139.336626 219.094059 
L 143.974398 235.000832 
L 147.839209 247.464489 
L 150.931057 256.789844 
L 154.022906 265.449918 
L 157.114754 273.366637 
L 159.43364 278.773144 
L 161.752527 283.69379 
L 164.071413 288.103614 
L 166.390299 291.980245 
L 168.709186 295.304017 
L 170.25511 297.204278 
L 171.801034 298.846985 
L 173.346958 300.228435 
L 174.892883 301.345511 
L 176.438807 302.195695 
L 177.984731 302.777069 
L 179.530655 303.088323 
L 181.076579 303.128755 
L 182.622504 302.898273 
L 184.168428 302.397396 
L 185.714352 301.627256 
L 187.260276 300.589588 
L 188.806201 299.286732 
L 190.352125 297.721627 
L 191.898049 295.897801 
L 193.443973 293.819369 
L 195.762859 290.23474 
L 198.081746 286.106107 
L 200.400632 281.454415 
L 202.719518 276.303259 
L 205.038405 270.678773 
L 208.130253 262.492805 
L 211.222102 253.590143 
L 214.31395 244.051046 
L 218.178761 231.363686 
L 222.816533 215.256297 
L 229.00023 192.821252 
L 240.594662 150.447522 
L 245.232434 134.354496 
L 249.097245 121.683353 
L 252.189093 112.15985 
L 255.280942 103.27496 
L 258.37279 95.108784 
L 260.691676 89.500358 
L 263.010563 84.366217 
L 265.329449 79.732407 
L 267.648335 75.622432 
L 269.967222 72.057144 
L 271.513146 69.991936 
L 273.05907 68.181565 
L 274.604994 66.630113 
L 276.150919 65.34108 
L 277.696843 64.317371 
L 279.242767 63.561296 
L 280.788691 63.07456 
L 282.334615 62.85826 
L 283.88054 62.912884 
L 285.426464 63.238309 
L 286.972388 63.8338 
L 288.518312 64.698017 
L 290.064236 65.829008 
L 291.610161 67.224224 
L 293.156085 68.880518 
L 294.702009 70.794155 
L 297.020895 74.137534 
L 299.339782 78.03313 
L 301.658668 82.461183 
L 303.977554 87.39923 
L 306.296441 92.822221 
L 309.388289 100.759349 
L 312.480138 109.437869 
L 315.571986 118.779541 
L 319.436797 131.26038 
L 324.074569 147.182743 
L 329.485304 166.652591 
L 344.944546 222.891747 
L 349.582319 238.580247 
L 353.447129 250.806365 
L 356.538978 259.907625 
L 359.630826 268.315496 
L 362.722674 275.954178 
L 365.041561 281.136704 
L 367.360447 285.821379 
L 369.679333 289.984438 
L 371.99822 293.604764 
L 374.317106 296.66399 
L 375.86303 298.383969 
L 377.408954 299.843735 
L 378.954879 301.039995 
L 380.500803 301.970052 
L 382.046727 302.631808 
L 383.592651 303.023771 
L 385.138576 303.145057 
L 386.6845 302.995392 
L 388.230424 302.575115 
L 389.776348 301.885173 
L 391.322272 300.927121 
L 392.868197 299.703121 
L 394.414121 298.215932 
L 395.960045 296.468908 
L 397.505969 294.46599 
L 399.824856 290.991845 
L 402.143742 286.969855 
L 404.462628 282.420425 
L 406.781515 277.366631 
L 409.100401 271.834111 
L 412.192249 263.761574 
L 415.284098 254.960902 
L 418.375946 245.511439 
L 422.240757 232.917522 
L 426.878529 216.893291 
L 433.062226 194.517323 
L 445.42962 149.341756 
L 450.067392 133.304933 
L 453.932203 120.696936 
L 457.024051 111.234 
L 460.1159 102.418023 
L 463.207748 94.328486 
L 465.526635 88.782196 
L 467.845521 83.713834 
L 470.164407 79.149112 
L 472.483294 75.111185 
L 473.256256 73.885895 
L 473.256256 73.885895 
" clip-path="url(#pa25b15fba8)" style="fill: none; stroke: #1f77b4; stroke-width: 1.5; stroke-linecap: square"/>
   </g>
   <g id="line2d_19">
    <path d="M 78.272619 62.846193 
L 79.818544 62.981252 
L 81.364468 63.386125 
L 82.910392 64.059901 
L 84.456316 65.001066 
L 86.00224 66.207505 
L 87.548165 67.676504 
L 89.094089 69.404761 
L 90.640013 71.388392 
L 92.958899 74.832751 
L 95.277786 78.824114 
L 97.596672 83.342295 
L 99.915558 88.364445 
L 102.234445 93.865167 
L 105.326293 101.895493 
L 108.418141 110.654721 
L 111.50999 120.064126 
L 115.3748 132.610862 
L 120.012573 148.584313 
L 125.423308 168.075189 
L 140.109588 221.472096 
L 144.74736 237.221007 
L 148.612171 249.52112 
L 151.704019 258.696716 
L 154.795868 267.191938 
L 157.887716 274.930434 
L 160.206603 280.195592 
L 162.525489 284.96919 
L 164.844375 289.227088 
L 167.163262 292.947751 
L 169.482148 296.112363 
L 171.028072 297.905166 
L 172.573996 299.439633 
L 174.119921 300.712314 
L 175.665845 301.720347 
L 177.211769 302.461466 
L 178.757693 302.934005 
L 180.303617 303.136902 
L 181.849542 303.069701 
L 183.395466 302.732553 
L 184.94139 302.126215 
L 186.487314 301.25205 
L 188.033238 300.112025 
L 189.579163 298.708702 
L 191.125087 297.045236 
L 192.671011 295.125367 
L 194.989897 291.774404 
L 197.308784 287.873324 
L 199.62767 283.441856 
L 201.946556 278.502412 
L 204.265443 273.07997 
L 207.357291 265.14645 
L 210.44914 256.474589 
L 213.540988 247.142326 
L 217.405798 234.67659 
L 222.043571 218.776248 
L 227.454306 199.335635 
L 242.913548 143.179539 
L 247.551321 127.509636 
L 251.416131 115.294907 
L 254.50798 106.199567 
L 257.599828 97.794444 
L 260.691676 90.155081 
L 263.010563 84.969669 
L 265.329449 80.279997 
L 267.648335 76.10978 
L 269.967222 72.480108 
L 272.286108 69.409338 
L 273.832032 67.680446 
L 275.377956 66.210804 
L 276.923881 65.003715 
L 278.469805 64.061893 
L 280.015729 63.387455 
L 281.561653 62.981918 
L 283.107578 62.846194 
L 284.653502 62.980587 
L 286.199426 63.384796 
L 287.74535 64.057911 
L 289.291274 64.99842 
L 290.837199 66.204208 
L 292.383123 67.672564 
L 293.929047 69.400187 
L 295.474971 71.383193 
L 297.793858 74.826638 
L 300.112744 78.817118 
L 302.43163 83.334452 
L 304.750516 88.355795 
L 307.069403 93.855752 
L 310.161251 101.885134 
L 313.2531 110.643511 
L 316.344948 120.052166 
L 320.209759 132.598116 
L 324.847531 148.570861 
L 330.258266 168.061258 
L 344.944546 221.458795 
L 349.582319 237.208478 
L 353.447129 249.509428 
L 356.538978 258.685812 
L 359.630826 267.181921 
L 362.722674 274.921394 
L 365.041561 280.187338 
L 367.360447 284.961765 
L 369.679333 289.220527 
L 371.99822 292.942089 
L 374.317106 296.107629 
L 375.86303 297.901064 
L 377.408954 299.436172 
L 378.954879 300.709502 
L 380.500803 301.71819 
L 382.046727 302.459969 
L 383.592651 302.933172 
L 385.138576 303.136734 
L 386.6845 303.070199 
L 388.230424 302.733715 
L 389.776348 302.128039 
L 391.322272 301.254532 
L 392.868197 300.11516 
L 394.414121 298.712482 
L 395.960045 297.049652 
L 397.505969 295.13041 
L 399.824856 291.780365 
L 402.143742 287.880174 
L 404.462628 283.44956 
L 406.781515 278.51093 
L 409.100401 273.08926 
L 412.192249 265.156695 
L 415.284098 256.485697 
L 418.375946 247.154197 
L 422.240757 234.689265 
L 426.878529 218.789651 
L 432.289264 199.349545 
L 447.748506 143.192786 
L 452.386279 127.52209 
L 456.251089 115.306507 
L 459.342938 106.210365 
L 462.434786 97.804344 
L 465.526635 90.163994 
L 467.845521 84.977789 
L 470.164407 80.287281 
L 472.483294 76.116193 
L 473.256256 74.84498 
L 473.256256 74.84498 
" clip-path="url(#pa25b15fba8)" style="fill: none; stroke: #ff7f0e; stroke-width: 1.5; stroke-linecap: square"/>
   </g>
   <g id="line2d_20">
    <path d="M 78.272619 62.846193 
L 79.818544 62.981131 
L 81.364468 63.385643 
L 82.910392 64.058819 
L 84.456316 64.999148 
L 86.00224 66.204518 
L 87.548165 67.67222 
L 89.094089 69.398959 
L 90.640013 71.380856 
L 92.958899 74.82223 
L 95.277786 78.810172 
L 97.596672 83.324533 
L 99.915558 88.342503 
L 102.234445 93.838728 
L 105.326293 101.862649 
L 108.418141 110.615117 
L 111.50999 120.017537 
L 115.3748 132.555438 
L 120.012573 148.518505 
L 125.423308 167.998198 
L 140.109588 221.375677 
L 144.74736 237.123363 
L 148.612171 249.424696 
L 151.704019 258.602835 
L 154.795868 267.102051 
L 157.887716 274.846023 
L 160.206603 280.11627 
L 162.525489 284.895796 
L 164.844375 289.160453 
L 167.163262 292.888691 
L 169.482148 296.061673 
L 171.028072 297.860484 
L 172.573996 299.40129 
L 174.119921 300.680629 
L 175.665845 301.695628 
L 177.211769 302.444008 
L 178.757693 302.924086 
L 180.303617 303.134785 
L 181.849542 303.075631 
L 183.395466 302.746758 
L 184.94139 302.148904 
L 186.487314 301.283412 
L 188.033238 300.152225 
L 189.579163 298.757886 
L 191.125087 297.103525 
L 192.671011 295.192859 
L 194.989897 291.855831 
L 197.308784 287.968766 
L 199.62767 283.551304 
L 201.946556 278.625765 
L 204.265443 273.217037 
L 207.357291 265.301341 
L 210.44914 256.646571 
L 213.540988 247.330444 
L 217.405798 234.883202 
L 222.043571 219.002046 
L 227.454306 199.578827 
L 242.913548 143.435278 
L 247.551321 127.75688 
L 251.416131 115.530497 
L 254.50798 106.422841 
L 257.599828 98.002782 
L 260.691676 90.345929 
L 263.010563 85.14578 
L 265.329449 80.440038 
L 267.648335 76.252479 
L 269.967222 72.604262 
L 272.286108 69.513821 
L 273.832032 67.771231 
L 275.377956 66.287456 
L 276.923881 65.065827 
L 278.469805 64.109089 
L 280.015729 63.41939 
L 281.561653 62.998281 
L 283.107578 62.846706 
L 284.653502 62.965007 
L 286.199426 63.352917 
L 287.74535 64.009566 
L 289.291274 64.933478 
L 290.837199 66.122577 
L 292.383123 67.574194 
L 293.929047 69.285068 
L 295.474971 71.251355 
L 297.793858 74.669871 
L 300.112744 78.635724 
L 302.43163 83.128878 
L 304.750516 88.12663 
L 307.069403 93.603727 
L 310.161251 101.604008 
L 313.2531 110.335158 
L 316.344948 119.718774 
L 320.209759 132.23696 
L 324.847531 148.182284 
L 330.258266 167.649873 
L 344.944546 221.042774 
L 349.582319 236.809647 
L 353.447129 249.131826 
L 356.538978 258.329616 
L 359.630826 266.850935 
L 362.722674 274.619267 
L 365.041561 279.909131 
L 367.360447 284.709322 
L 369.679333 288.995585 
L 371.99822 292.746263 
L 374.317106 295.942405 
L 375.86303 297.756998 
L 377.408954 299.313818 
L 378.954879 300.609368 
L 380.500803 301.640738 
L 382.046727 302.405611 
L 383.592651 302.90227 
L 385.138576 303.129598 
L 386.6845 303.087085 
L 388.230424 302.774827 
L 389.776348 302.193526 
L 391.322272 301.344485 
L 392.868197 300.229614 
L 394.414121 298.851415 
L 395.960045 297.212985 
L 397.505969 295.318004 
L 399.051893 293.170729 
L 401.37078 289.487465 
L 403.689666 285.266132 
L 406.008552 280.528057 
L 408.327439 275.297181 
L 410.646325 269.599934 
L 413.738173 261.328215 
L 416.830022 252.353099 
L 419.92187 242.75518 
L 423.786681 230.013734 
L 428.424454 213.869976 
L 434.60815 191.433802 
L 446.202582 149.191827 
L 450.840355 133.193685 
L 454.705165 120.616675 
L 457.797014 111.176888 
L 460.888862 102.382008 
L 463.98071 94.311011 
L 466.299597 88.776672 
L 468.618483 83.718394 
L 470.937369 79.161735 
L 473.256256 75.129718 
L 473.256256 75.129718 
" clip-path="url(#pa25b15fba8)" style="fill: none; stroke: #2ca02c; stroke-width: 1.5; stroke-linecap: square"/>
   </g>
   <g id="line2d_21">
    <path d="M 78.272619 62.846193 
L 79.818544 62.9811 
L 81.364468 63.385518 
L 82.910392 64.058538 
L 84.456316 64.998649 
L 86.00224 66.20374 
L 87.548165 67.671106 
L 89.094089 69.397449 
L 90.640013 71.378895 
L 92.958899 74.819492 
L 95.277786 78.806544 
L 97.596672 83.319911 
L 99.915558 88.336793 
L 102.234445 93.831847 
L 105.326293 101.854102 
L 108.418141 110.60481 
L 111.50999 120.005412 
L 115.3748 132.541014 
L 120.012573 148.501377 
L 125.423308 167.978158 
L 140.109588 221.350575 
L 144.74736 237.097939 
L 148.612171 249.399587 
L 151.704019 258.578386 
L 154.795868 267.078638 
L 157.887716 274.824034 
L 160.206603 280.095603 
L 162.525489 284.87667 
L 164.844375 289.143083 
L 167.163262 292.873291 
L 169.482148 296.04845 
L 171.028072 297.848823 
L 172.573996 299.391278 
L 174.119921 300.672349 
L 175.665845 301.68916 
L 177.211769 302.439427 
L 178.757693 302.921467 
L 180.303617 303.134195 
L 181.849542 303.077135 
L 183.395466 302.750415 
L 184.94139 302.154768 
L 186.487314 301.291532 
L 188.033238 300.162646 
L 189.579163 298.770644 
L 191.125087 297.118653 
L 192.671011 295.210382 
L 194.989897 291.87698 
L 197.308784 287.993563 
L 199.62767 283.579747 
L 201.946556 278.657828 
L 204.265443 273.252671 
L 207.357291 265.341616 
L 210.44914 256.691298 
L 213.540988 247.379375 
L 217.405798 234.936952 
L 222.043571 219.060797 
L 227.454306 199.642118 
L 242.913548 143.501879 
L 247.551321 127.821286 
L 251.416131 115.591883 
L 254.50798 106.481032 
L 257.599828 98.057096 
L 260.691676 90.395701 
L 263.010563 85.191724 
L 265.329449 80.481807 
L 267.648335 76.289741 
L 269.967222 72.636704 
L 272.286108 69.541149 
L 273.832032 67.794998 
L 275.377956 66.307547 
L 276.923881 65.082137 
L 278.469805 64.12152 
L 280.015729 63.427853 
L 281.561653 63.002693 
L 283.107578 62.846995 
L 284.653502 62.961109 
L 286.199426 63.344779 
L 287.74535 63.997142 
L 289.291274 64.916735 
L 290.837199 66.101492 
L 292.383123 67.548752 
L 293.929047 69.255266 
L 295.474971 71.2172 
L 297.793858 74.629225 
L 300.112744 78.588666 
L 302.43163 83.075523 
L 304.750516 88.067129 
L 307.069403 93.53827 
L 310.161251 101.530967 
L 313.2531 110.255018 
L 316.344948 119.632103 
L 320.209759 132.143043 
L 324.847531 148.081204 
L 330.258266 167.542821 
L 344.944546 220.934402 
L 349.582319 236.705711 
L 353.447129 249.033383 
L 356.538978 258.236719 
L 359.630826 266.764577 
L 362.722674 274.540396 
L 365.041561 279.83647 
L 367.360447 284.643351 
L 369.679333 288.936757 
L 371.99822 292.694999 
L 374.317106 295.899093 
L 375.86303 297.719186 
L 377.408954 299.281649 
L 378.954879 300.582976 
L 380.500803 301.620244 
L 382.046727 302.391123 
L 383.592651 302.893882 
L 385.138576 303.127392 
L 386.6845 303.091129 
L 388.230424 302.785175 
L 389.776348 302.210216 
L 391.322272 301.367543 
L 392.868197 300.259049 
L 394.414121 298.887223 
L 395.960045 297.255146 
L 397.505969 295.366482 
L 399.051893 293.225474 
L 401.37078 289.551485 
L 403.689666 285.339227 
L 406.008552 280.609979 
L 408.327439 275.38763 
L 410.646325 269.698562 
L 413.738173 261.437122 
L 416.830022 252.471472 
L 419.92187 242.882101 
L 423.786681 230.149902 
L 428.424454 214.014909 
L 434.60815 191.586061 
L 446.202582 149.343098 
L 450.840355 133.338969 
L 454.705165 120.754547 
L 457.797014 111.307288 
L 460.888862 102.503616 
L 463.98071 94.422567 
L 466.299597 88.879906 
L 468.618483 83.812673 
L 470.937369 79.246467 
L 473.256256 75.204353 
L 473.256256 75.204353 
" clip-path="url(#pa25b15fba8)" style="fill: none; stroke: #d62728; stroke-width: 1.5; stroke-linecap: square"/>
   </g>
   <g id="line2d_22">
    <path d="M 58.523438 182.995811 
L 493.005438 182.995811 
" clip-path="url(#pa25b15fba8)" style="fill: none; stroke: #808080; stroke-width: 0.5; stroke-linecap: square"/>
   </g>
   <g id="patch_3">
    <path d="M 58.523438 315.16 
L 58.523438 50.83125 
" style="fill: none; stroke: #000000; stroke-width: 0.8; stroke-linejoin: miter; stroke-linecap: square"/>
   </g>
   <g id="patch_4">
    <path d="M 493.005438 315.16 
L 493.005438 50.83125 
" style="fill: none; stroke: #000000; stroke-width: 0.8; stroke-linejoin: miter; stroke-linecap: square"/>
   </g>
   <g id="patch_5">
    <path d="M 58.523438 315.16 
L 493.005438 315.16 
" style="fill: none; stroke: #000000; stroke-width: 0.8; stroke-linejoin: miter; stroke-linecap: square"/>
   </g>
   <g id="patch_6">
    <path d="M 58.523438 50.83125 
L 493.005438 50.83125 
" style="fill: none; stroke: #000000; stroke-width: 0.8; stroke-linejoin: miter; stroke-linecap: square"/>
   </g>
   <g id="text_20">
    <!-- Electron (1,2) -->
    <g transform="translate(235.02725 44.83125) scale(0.12 -0.12)">
     <defs>
      <path id="DejaVuSans-45" d="M 628 4666 
L 3578 4666 
L 3578 4134 
L 1259 4134 
L 1259 2753 
L 3481 2753 
L 3481 2222 
L 1259 2222 
L 1259 531 
L 3634 531 
L 3634 0 
L 628 0 
L 628 4666 
z
" transform="scale(0.015625)"/>
      <path id="DejaVuSans-6c" d="M 603 4863 
L 1178 4863 
L 1178 0 
L 603 0 
L 603 4863 
z
" transform="scale(0.015625)"/>
      <path id="DejaVuSans-63" d="M 3122 3366 
L 3122 2828 
Q 2878 2963 2633 3030 
Q 2388 3097 2138 3097 
Q 1578 3097 1268 2742 
Q 959 2388 959 1747 
Q 959 1106 1268 751 
Q 1578 397 2138 397 
Q 2388 397 2633 464 
Q 2878 531 3122 666 
L 3122 134 
Q 2881 22 2623 -34 
Q 2366 -91 2075 -91 
Q 1284 -91 818 406 
Q 353 903 353 1747 
Q 353 2603 823 3093 
Q 1294 3584 2113 3584 
Q 2378 3584 2631 3529 
Q 2884 3475 3122 3366 
z
" transform="scale(0.015625)"/>
      <path id="DejaVuSans-74" d="M 1172 4494 
L 1172 3500 
L 2356 3500 
L 2356 3053 
L 1172 3053 
L 1172 1153 
Q 1172 725 1289 603 
Q 1406 481 1766 481 
L 2356 481 
L 2356 0 
L 1766 0 
Q 1100 0 847 248 
Q 594 497 594 1153 
L 594 3053 
L 172 3053 
L 172 3500 
L 594 3500 
L 594 4494 
L 1172 4494 
z
" transform="scale(0.015625)"/>
      <path id="DejaVuSans-6f" d="M 1959 3097 
Q 1497 3097 1228 2736 
Q 959 2375 959 1747 
Q 959 1119 1226 758 
Q 1494 397 1959 397 
Q 2419 397 2687 759 
Q 2956 1122 2956 1747 
Q 2956 2369 2687 2733 
Q 2419 3097 1959 3097 
z
M 1959 3584 
Q 2709 3584 3137 3096 
Q 3566 2609 3566 1747 
Q 3566 888 3137 398 
Q 2709 -91 1959 -91 
Q 1206 -91 779 398 
Q 353 888 353 1747 
Q 353 2609 779 3096 
Q 1206 3584 1959 3584 
z
" transform="scale(0.015625)"/>
     </defs>
     <use xlink:href="#DejaVuSans-45"/>
     <use xlink:href="#DejaVuSans-6c" transform="translate(63.183594 0)"/>
     <use xlink:href="#DejaVuSans-65" transform="translate(90.966797 0)"/>
     <use xlink:href="#DejaVuSans-63" transform="translate(152.490234 0)"/>
     <use xlink:href="#DejaVuSans-74" transform="translate(207.470703 0)"/>
     <use xlink:href="#DejaVuSans-72" transform="translate(246.679688 0)"/>
     <use xlink:href="#DejaVuSans-6f" transform="translate(285.542969 0)"/>
     <use xlink:href="#DejaVuSans-6e" transform="translate(346.724609 0)"/>
     <use xlink:href="#DejaVuSans-20" transform="translate(410.103516 0)"/>
     <use xlink:href="#DejaVuSans-28" transform="translate(441.890625 0)"/>
     <use xlink:href="#DejaVuSans-31" transform="translate(480.904297 0)"/>
     <use xlink:href="#DejaVuSans-2c" transform="translate(544.527344 0)"/>
     <use xlink:href="#DejaVuSans-32" transform="translate(576.314453 0)"/>
     <use xlink:href="#DejaVuSans-29" transform="translate(639.9375 0)"/>
    </g>
   </g>
   <g id="legend_1">
    <g id="patch_7">
     <path d="M 65.523438 310.16 
L 116.376563 310.16 
Q 118.376563 310.16 118.376563 308.16 
L 118.376563 250.4475 
Q 118.376563 248.4475 116.376563 248.4475 
L 65.523438 248.4475 
Q 63.523438 248.4475 63.523438 250.4475 
L 63.523438 308.16 
Q 63.523438 310.16 65.523438 310.16 
z
" style="fill: #ffffff; opacity: 0.8; stroke: #cccccc; stroke-linejoin: miter"/>
    </g>
    <g id="line2d_23">
     <path d="M 67.523438 256.545937 
L 77.523438 256.545937 
L 87.523438 256.545937 
" style="fill: none; stroke: #1f77b4; stroke-width: 1.5; stroke-linecap: square"/>
    </g>
    <g id="text_21">
     <!-- r=1 -->
     <g transform="translate(95.523438 260.045937) scale(0.1 -0.1)">
      <defs>
       <path id="DejaVuSans-3d" d="M 678 2906 
L 4684 2906 
L 4684 2381 
L 678 2381 
L 678 2906 
z
M 678 1631 
L 4684 1631 
L 4684 1100 
L 678 1100 
L 678 1631 
z
" transform="scale(0.015625)"/>
      </defs>
      <use xlink:href="#DejaVuSans-72"/>
      <use xlink:href="#DejaVuSans-3d" transform="translate(41.113281 0)"/>
      <use xlink:href="#DejaVuSans-31" transform="translate(124.902344 0)"/>
     </g>
    </g>
    <g id="line2d_24">
     <path d="M 67.523438 271.224062 
L 77.523438 271.224062 
L 87.523438 271.224062 
" style="fill: none; stroke: #ff7f0e; stroke-width: 1.5; stroke-linecap: square"/>
    </g>
    <g id="text_22">
     <!-- r=2 -->
     <g transform="translate(95.523438 274.724062) scale(0.1 -0.1)">
      <use xlink:href="#DejaVuSans-72"/>
      <use xlink:href="#DejaVuSans-3d" transform="translate(41.113281 0)"/>
      <use xlink:href="#DejaVuSans-32" transform="translate(124.902344 0)"/>
     </g>
    </g>
    <g id="line2d_25">
     <path d="M 67.523438 285.902187 
L 77.523438 285.902187 
L 87.523438 285.902187 
" style="fill: none; stroke: #2ca02c; stroke-width: 1.5; stroke-linecap: square"/>
    </g>
    <g id="text_23">
     <!-- r=4 -->
     <g transform="translate(95.523438 289.402187) scale(0.1 -0.1)">
      <defs>
       <path id="DejaVuSans-34" d="M 2419 4116 
L 825 1625 
L 2419 1625 
L 2419 4116 
z
M 2253 4666 
L 3047 4666 
L 3047 1625 
L 3713 1625 
L 3713 1100 
L 3047 1100 
L 3047 0 
L 2419 0 
L 2419 1100 
L 313 1100 
L 313 1709 
L 2253 4666 
z
" transform="scale(0.015625)"/>
      </defs>
      <use xlink:href="#DejaVuSans-72"/>
      <use xlink:href="#DejaVuSans-3d" transform="translate(41.113281 0)"/>
      <use xlink:href="#DejaVuSans-34" transform="translate(124.902344 0)"/>
     </g>
    </g>
    <g id="line2d_26">
     <path d="M 67.523438 300.580312 
L 77.523438 300.580312 
L 87.523438 300.580312 
" style="fill: none; stroke: #d62728; stroke-width: 1.5; stroke-linecap: square"/>
    </g>
    <g id="text_24">
     <!-- r=8 -->
     <g transform="translate(95.523438 304.080312) scale(0.1 -0.1)">
      <defs>
       <path id="DejaVuSans-38" d="M 2034 2216 
Q 1584 2216 1326 1975 
Q 1069 1734 1069 1313 
Q 1069 891 1326 650 
Q 1584 409 2034 409 
Q 2484 409 2743 651 
Q 3003 894 3003 1313 
Q 3003 1734 2745 1975 
Q 2488 2216 2034 2216 
z
M 1403 2484 
Q 997 2584 770 2862 
Q 544 3141 544 3541 
Q 544 4100 942 4425 
Q 1341 4750 2034 4750 
Q 2731 4750 3128 4425 
Q 3525 4100 3525 3541 
Q 3525 3141 3298 2862 
Q 3072 2584 2669 2484 
Q 3125 2378 3379 2068 
Q 3634 1759 3634 1313 
Q 3634 634 3220 271 
Q 2806 -91 2034 -91 
Q 1263 -91 848 271 
Q 434 634 434 1313 
Q 434 1759 690 2068 
Q 947 2378 1403 2484 
z
M 1172 3481 
Q 1172 3119 1398 2916 
Q 1625 2713 2034 2713 
Q 2441 2713 2670 2916 
Q 2900 3119 2900 3481 
Q 2900 3844 2670 4047 
Q 2441 4250 2034 4250 
Q 1625 4250 1398 4047 
Q 1172 3844 1172 3481 
z
" transform="scale(0.015625)"/>
      </defs>
      <use xlink:href="#DejaVuSans-72"/>
      <use xlink:href="#DejaVuSans-3d" transform="translate(41.113281 0)"/>
      <use xlink:href="#DejaVuSans-38" transform="translate(124.902344 0)"/>
     </g>
    </g>
   </g>
  </g>
  <g id="axes_2">
   <g id="patch_8">
    <path d="M 557.123438 315.16 
L 991.605437 315.16 
L 991.605437 50.83125 
L 557.123438 50.83125 
z
" style="fill: #ffffff"/>
   </g>
   <g id="matplotlib.axis_3">
    <g id="xtick_9">
     <g id="line2d_27">
      <g>
       <use xlink:href="#mf35f3ace07" x="576.872619" y="315.16" style="stroke: #000000; stroke-width: 0.8"/>
      </g>
     </g>
     <g id="text_25">
      <!-- 0 -->
      <g transform="translate(573.691369 329.758438) scale(0.1 -0.1)">
       <use xlink:href="#DejaVuSans-30"/>
      </g>
     </g>
    </g>
    <g id="xtick_10">
     <g id="line2d_28">
      <g>
       <use xlink:href="#mf35f3ace07" x="631.838814" y="315.16" style="stroke: #000000; stroke-width: 0.8"/>
      </g>
     </g>
     <g id="text_26">
      <!-- 50 -->
      <g transform="translate(625.476314 329.758438) scale(0.1 -0.1)">
       <use xlink:href="#DejaVuSans-35"/>
       <use xlink:href="#DejaVuSans-30" transform="translate(63.623047 0)"/>
      </g>
     </g>
    </g>
    <g id="xtick_11">
     <g id="line2d_29">
      <g>
       <use xlink:href="#mf35f3ace07" x="686.805008" y="315.16" style="stroke: #000000; stroke-width: 0.8"/>
      </g>
     </g>
     <g id="text_27">
      <!-- 100 -->
      <g transform="translate(677.261258 329.758438) scale(0.1 -0.1)">
       <use xlink:href="#DejaVuSans-31"/>
       <use xlink:href="#DejaVuSans-30" transform="translate(63.623047 0)"/>
       <use xlink:href="#DejaVuSans-30" transform="translate(127.246094 0)"/>
      </g>
     </g>
    </g>
    <g id="xtick_12">
     <g id="line2d_30">
      <g>
       <use xlink:href="#mf35f3ace07" x="741.771202" y="315.16" style="stroke: #000000; stroke-width: 0.8"/>
      </g>
     </g>
     <g id="text_28">
      <!-- 150 -->
      <g transform="translate(732.227452 329.758438) scale(0.1 -0.1)">
       <use xlink:href="#DejaVuSans-31"/>
       <use xlink:href="#DejaVuSans-35" transform="translate(63.623047 0)"/>
       <use xlink:href="#DejaVuSans-30" transform="translate(127.246094 0)"/>
      </g>
     </g>
    </g>
    <g id="xtick_13">
     <g id="line2d_31">
      <g>
       <use xlink:href="#mf35f3ace07" x="796.737396" y="315.16" style="stroke: #000000; stroke-width: 0.8"/>
      </g>
     </g>
     <g id="text_29">
      <!-- 200 -->
      <g transform="translate(787.193646 329.758438) scale(0.1 -0.1)">
       <use xlink:href="#DejaVuSans-32"/>
       <use xlink:href="#DejaVuSans-30" transform="translate(63.623047 0)"/>
       <use xlink:href="#DejaVuSans-30" transform="translate(127.246094 0)"/>
      </g>
     </g>
    </g>
    <g id="xtick_14">
     <g id="line2d_32">
      <g>
       <use xlink:href="#mf35f3ace07" x="851.70359" y="315.16" style="stroke: #000000; stroke-width: 0.8"/>
      </g>
     </g>
     <g id="text_30">
      <!-- 250 -->
      <g transform="translate(842.15984 329.758438) scale(0.1 -0.1)">
       <use xlink:href="#DejaVuSans-32"/>
       <use xlink:href="#DejaVuSans-35" transform="translate(63.623047 0)"/>
       <use xlink:href="#DejaVuSans-30" transform="translate(127.246094 0)"/>
      </g>
     </g>
    </g>
    <g id="xtick_15">
     <g id="line2d_33">
      <g>
       <use xlink:href="#mf35f3ace07" x="906.669785" y="315.16" style="stroke: #000000; stroke-width: 0.8"/>
      </g>
     </g>
     <g id="text_31">
      <!-- 300 -->
      <g transform="translate(897.126035 329.758438) scale(0.1 -0.1)">
       <use xlink:href="#DejaVuSans-33"/>
       <use xlink:href="#DejaVuSans-30" transform="translate(63.623047 0)"/>
       <use xlink:href="#DejaVuSans-30" transform="translate(127.246094 0)"/>
      </g>
     </g>
    </g>
    <g id="xtick_16">
     <g id="line2d_34">
      <g>
       <use xlink:href="#mf35f3ace07" x="961.635979" y="315.16" style="stroke: #000000; stroke-width: 0.8"/>
      </g>
     </g>
     <g id="text_32">
      <!-- 350 -->
      <g transform="translate(952.092229 329.758438) scale(0.1 -0.1)">
       <use xlink:href="#DejaVuSans-33"/>
       <use xlink:href="#DejaVuSans-35" transform="translate(63.623047 0)"/>
       <use xlink:href="#DejaVuSans-30" transform="translate(127.246094 0)"/>
      </g>
     </g>
    </g>
    <g id="text_33">
     <!-- $\theta_2$ (ring, degrees) -->
     <g transform="translate(730.214438 343.538125) scale(0.1 -0.1)">
      <use xlink:href="#DejaVuSans-Oblique-3b8" transform="translate(0 0.234375)"/>
      <use xlink:href="#DejaVuSans-32" transform="translate(61.181641 -16.171875) scale(0.7)"/>
      <use xlink:href="#DejaVuSans-20" transform="translate(108.452148 0.234375)"/>
      <use xlink:href="#DejaVuSans-28" transform="translate(140.239258 0.234375)"/>
      <use xlink:href="#DejaVuSans-72" transform="translate(179.25293 0.234375)"/>
      <use xlink:href="#DejaVuSans-69" transform="translate(220.366211 0.234375)"/>
      <use xlink:href="#DejaVuSans-6e" transform="translate(248.149414 0.234375)"/>
      <use xlink:href="#DejaVuSans-67" transform="translate(311.52832 0.234375)"/>
      <use xlink:href="#DejaVuSans-2c" transform="translate(375.004883 0.234375)"/>
      <use xlink:href="#DejaVuSans-20" transform="translate(406.791992 0.234375)"/>
      <use xlink:href="#DejaVuSans-64" transform="translate(438.579102 0.234375)"/>
      <use xlink:href="#DejaVuSans-65" transform="translate(502.055664 0.234375)"/>
      <use xlink:href="#DejaVuSans-67" transform="translate(563.579102 0.234375)"/>
      <use xlink:href="#DejaVuSans-72" transform="translate(627.055664 0.234375)"/>
      <use xlink:href="#DejaVuSans-65" transform="translate(668.168945 0.234375)"/>
      <use xlink:href="#DejaVuSans-65" transform="translate(729.692383 0.234375)"/>
      <use xlink:href="#DejaVuSans-73" transform="translate(791.21582 0.234375)"/>
      <use xlink:href="#DejaVuSans-29" transform="translate(843.31543 0.234375)"/>
     </g>
    </g>
   </g>
   <g id="matplotlib.axis_4">
    <g id="ytick_10">
     <g id="line2d_35">
      <g>
       <use xlink:href="#me49a6523b5" x="557.123438" y="303.145058" style="stroke: #000000; stroke-width: 0.8"/>
      </g>
     </g>
     <g id="text_34">
      <!-- −1.00 -->
      <g transform="translate(519.478125 306.944277) scale(0.1 -0.1)">
       <use xlink:href="#DejaVuSans-2212"/>
       <use xlink:href="#DejaVuSans-31" transform="translate(83.789062 0)"/>
       <use xlink:href="#DejaVuSans-2e" transform="translate(147.412109 0)"/>
       <use xlink:href="#DejaVuSans-30" transform="translate(179.199219 0)"/>
       <use xlink:href="#DejaVuSans-30" transform="translate(242.822266 0)"/>
      </g>
     </g>
    </g>
    <g id="ytick_11">
     <g id="line2d_36">
      <g>
       <use xlink:href="#me49a6523b5" x="557.123438" y="273.1077" style="stroke: #000000; stroke-width: 0.8"/>
      </g>
     </g>
     <g id="text_35">
      <!-- −0.75 -->
      <g transform="translate(519.478125 276.906919) scale(0.1 -0.1)">
       <use xlink:href="#DejaVuSans-2212"/>
       <use xlink:href="#DejaVuSans-30" transform="translate(83.789062 0)"/>
       <use xlink:href="#DejaVuSans-2e" transform="translate(147.412109 0)"/>
       <use xlink:href="#DejaVuSans-37" transform="translate(179.199219 0)"/>
       <use xlink:href="#DejaVuSans-35" transform="translate(242.822266 0)"/>
      </g>
     </g>
    </g>
    <g id="ytick_12">
     <g id="line2d_37">
      <g>
       <use xlink:href="#me49a6523b5" x="557.123438" y="243.070342" style="stroke: #000000; stroke-width: 0.8"/>
      </g>
     </g>
     <g id="text_36">
      <!-- −0.50 -->
      <g transform="translate(519.478125 246.869561) scale(0.1 -0.1)">
       <use xlink:href="#DejaVuSans-2212"/>
       <use xlink:href="#DejaVuSans-30" transform="translate(83.789062 0)"/>
       <use xlink:href="#DejaVuSans-2e" transform="translate(147.412109 0)"/>
       <use xlink:href="#DejaVuSans-35" transform="translate(179.199219 0)"/>
       <use xlink:href="#DejaVuSans-30" transform="translate(242.822266 0)"/>
      </g>
     </g>
    </g>
    <g id="ytick_13">
     <g id="line2d_38">
      <g>
       <use xlink:href="#me49a6523b5" x="557.123438" y="213.032984" style="stroke: #000000; stroke-width: 0.8"/>
      </g>
     </g>
     <g id="text_37">
      <!-- −0.25 -->
      <g transform="translate(519.478125 216.832203) scale(0.1 -0.1)">
       <use xlink:href="#DejaVuSans-2212"/>
       <use xlink:href="#DejaVuSans-30" transform="translate(83.789062 0)"/>
       <use xlink:href="#DejaVuSans-2e" transform="translate(147.412109 0)"/>
       <use xlink:href="#DejaVuSans-32" transform="translate(179.199219 0)"/>
       <use xlink:href="#DejaVuSans-35" transform="translate(242.822266 0)"/>
      </g>
     </g>
    </g>
    <g id="ytick_14">
     <g id="line2d_39">
      <g>
       <use xlink:href="#me49a6523b5" x="557.123438" y="182.995626" style="stroke: #000000; stroke-width: 0.8"/>
      </g>
     </g>
     <g id="text_38">
      <!-- 0.00 -->
      <g transform="translate(527.857813 186.794844) scale(0.1 -0.1)">
       <use xlink:href="#DejaVuSans-30"/>
       <use xlink:href="#DejaVuSans-2e" transform="translate(63.623047 0)"/>
       <use xlink:href="#DejaVuSans-30" transform="translate(95.410156 0)"/>
       <use xlink:href="#DejaVuSans-30" transform="translate(159.033203 0)"/>
      </g>
     </g>
    </g>
    <g id="ytick_15">
     <g id="line2d_40">
      <g>
       <use xlink:href="#me49a6523b5" x="557.123438" y="152.958268" style="stroke: #000000; stroke-width: 0.8"/>
      </g>
     </g>
     <g id="text_39">
      <!-- 0.25 -->
      <g transform="translate(527.857813 156.757486) scale(0.1 -0.1)">
       <use xlink:href="#DejaVuSans-30"/>
       <use xlink:href="#DejaVuSans-2e" transform="translate(63.623047 0)"/>
       <use xlink:href="#DejaVuSans-32" transform="translate(95.410156 0)"/>
       <use xlink:href="#DejaVuSans-35" transform="translate(159.033203 0)"/>
      </g>
     </g>
    </g>
    <g id="ytick_16">
     <g id="line2d_41">
      <g>
       <use xlink:href="#me49a6523b5" x="557.123438" y="122.920909" style="stroke: #000000; stroke-width: 0.8"/>
      </g>
     </g>
     <g id="text_40">
      <!-- 0.50 -->
      <g transform="translate(527.857813 126.720128) scale(0.1 -0.1)">
       <use xlink:href="#DejaVuSans-30"/>
       <use xlink:href="#DejaVuSans-2e" transform="translate(63.623047 0)"/>
       <use xlink:href="#DejaVuSans-35" transform="translate(95.410156 0)"/>
       <use xlink:href="#DejaVuSans-30" transform="translate(159.033203 0)"/>
      </g>
     </g>
    </g>
    <g id="ytick_17">
     <g id="line2d_42">
      <g>
       <use xlink:href="#me49a6523b5" x="557.123438" y="92.883551" style="stroke: #000000; stroke-width: 0.8"/>
      </g>
     </g>
     <g id="text_41">
      <!-- 0.75 -->
      <g transform="translate(527.857813 96.68277) scale(0.1 -0.1)">
       <use xlink:href="#DejaVuSans-30"/>
       <use xlink:href="#DejaVuSans-2e" transform="translate(63.623047 0)"/>
       <use xlink:href="#DejaVuSans-37" transform="translate(95.410156 0)"/>
       <use xlink:href="#DejaVuSans-35" transform="translate(159.033203 0)"/>
      </g>
     </g>
    </g>
    <g id="ytick_18">
     <g id="line2d_43">
      <g>
       <use xlink:href="#me49a6523b5" x="557.123438" y="62.846193" style="stroke: #000000; stroke-width: 0.8"/>
      </g>
     </g>
     <g id="text_42">
      <!-- 1.00 -->
      <g transform="translate(527.857813 66.645412) scale(0.1 -0.1)">
       <use xlink:href="#DejaVuSans-31"/>
       <use xlink:href="#DejaVuSans-2e" transform="translate(63.623047 0)"/>
       <use xlink:href="#DejaVuSans-30" transform="translate(95.410156 0)"/>
       <use xlink:href="#DejaVuSans-30" transform="translate(159.033203 0)"/>
      </g>
     </g>
    </g>
    <g id="text_43">
     <!-- $E_n / E_0$ -->
     <g transform="translate(513.398438 195.745625) rotate(-90) scale(0.1 -0.1)">
      <use xlink:href="#DejaVuSans-Oblique-45" transform="translate(0 0.09375)"/>
      <use xlink:href="#DejaVuSans-Oblique-6e" transform="translate(63.183594 -16.3125) scale(0.7)"/>
      <use xlink:href="#DejaVuSans-2f" transform="translate(110.283203 0.09375)"/>
      <use xlink:href="#DejaVuSans-Oblique-45" transform="translate(143.974609 0.09375)"/>
      <use xlink:href="#DejaVuSans-30" transform="translate(207.158203 -16.3125) scale(0.7)"/>
     </g>
    </g>
   </g>
   <g id="line2d_44">
    <path d="M 576.872619 62.846193 
L 579.964468 62.972724 
L 583.056316 63.35205 
L 586.148165 63.983373 
L 589.240013 64.865362 
L 592.331861 65.99616 
L 595.42371 67.373385 
L 598.515558 68.994137 
L 601.607407 70.855001 
L 604.699255 72.952059 
L 607.791104 75.280893 
L 611.655914 78.510354 
L 615.520725 82.083639 
L 619.385535 85.988991 
L 623.250346 90.213557 
L 627.115156 94.743437 
L 631.752929 100.561251 
L 636.390702 106.769637 
L 641.028474 113.339178 
L 646.439209 121.418491 
L 651.849944 129.894851 
L 658.03364 139.998086 
L 664.990299 151.792638 
L 674.265845 168.01363 
L 702.865443 218.448629 
L 709.822102 230.094023 
L 716.005798 240.02793 
L 721.416533 248.328917 
L 726.827268 256.208636 
L 731.465041 262.588792 
L 736.102813 268.591838 
L 740.740586 274.189332 
L 744.605396 278.52492 
L 748.470207 282.546154 
L 752.335017 286.239802 
L 756.199828 289.59371 
L 760.064639 292.59684 
L 763.156487 294.740104 
L 766.248335 296.648009 
L 769.340184 298.316537 
L 772.432032 299.742172 
L 775.523881 300.921914 
L 778.615729 301.853275 
L 781.707578 302.534296 
L 784.799426 302.963542 
L 787.891274 303.140108 
L 790.983123 303.063623 
L 794.074971 302.734247 
L 797.16682 302.152675 
L 800.258668 301.320132 
L 803.350516 300.23837 
L 806.442365 298.909669 
L 809.534213 297.336826 
L 812.626062 295.523156 
L 815.71791 293.472477 
L 818.809759 291.189109 
L 822.674569 288.015052 
L 826.53938 284.495413 
L 830.40419 280.641773 
L 834.269001 276.466814 
L 838.133811 271.984274 
L 842.771584 266.220056 
L 847.409357 260.061523 
L 852.047129 253.537855 
L 857.457864 245.506742 
L 862.868599 237.07256 
L 869.052296 227.009807 
L 876.008954 215.25055 
L 884.511538 200.424316 
L 916.202984 144.644639 
L 923.159643 133.111107 
L 929.34334 123.301599 
L 934.754075 115.127887 
L 940.164809 107.391786 
L 944.802582 101.147038 
L 949.440355 95.290086 
L 953.305165 90.725604 
L 957.169976 86.464751 
L 961.034786 82.521547 
L 964.899597 78.908969 
L 968.764407 75.638903 
L 971.856256 73.27673 
L 971.856256 73.27673 
" clip-path="url(#pdebfaf399f)" style="fill: none; stroke: #1f77b4; stroke-width: 1.5; stroke-linecap: square"/>
   </g>
   <g id="line2d_45">
    <path d="M 576.872619 62.846193 
L 579.964468 62.971919 
L 583.056316 63.348833 
L 586.148165 63.976147 
L 589.240013 64.852548 
L 592.331861 65.976202 
L 595.42371 67.344756 
L 598.515558 68.955348 
L 601.607407 70.804605 
L 604.699255 72.888659 
L 607.791104 75.203147 
L 611.655914 78.412882 
L 615.520725 81.964572 
L 619.385535 85.846606 
L 623.250346 90.046289 
L 627.115156 94.54989 
L 631.752929 100.334582 
L 636.390702 106.508429 
L 641.028474 113.042364 
L 646.439209 121.079274 
L 651.849944 129.512881 
L 658.03364 139.567621 
L 664.990299 151.309217 
L 673.492883 166.102833 
L 704.411367 220.385305 
L 711.368026 231.920758 
L 717.551723 241.743318 
L 722.962457 249.937556 
L 728.373192 257.702899 
L 733.010965 263.979748 
L 737.648737 269.875338 
L 742.28651 275.361913 
L 746.151321 279.602921 
L 750.016131 283.528051 
L 753.880942 287.124468 
L 757.745752 290.380413 
L 760.837601 292.732838 
L 763.929449 294.855601 
L 767.021297 296.744261 
L 770.113146 298.394866 
L 773.204994 299.80396 
L 776.296843 300.968595 
L 779.388691 301.886333 
L 782.48054 302.555254 
L 785.572388 302.973957 
L 788.664236 303.141567 
L 791.756085 303.057733 
L 794.847933 302.72263 
L 797.939782 302.136959 
L 801.03163 301.301947 
L 804.123479 300.21934 
L 807.215327 298.891404 
L 810.307175 297.320919 
L 813.399024 295.511172 
L 816.490872 293.465949 
L 819.582721 291.189531 
L 823.447531 288.026194 
L 827.312342 284.519437 
L 831.177152 280.680725 
L 835.041963 276.522611 
L 838.906773 272.058691 
L 843.544546 266.318939 
L 848.182319 260.186916 
L 852.820091 253.69149 
L 858.230826 245.695075 
L 863.641561 237.296948 
L 869.825258 227.276322 
L 876.781917 215.564564 
L 885.2845 200.794704 
L 902.289666 170.648777 
L 912.338173 153.079747 
L 920.067795 139.994517 
L 926.251491 129.922955 
L 932.435188 120.295447 
L 937.845923 112.299071 
L 942.483696 105.803681 
L 947.121468 99.671697 
L 951.759241 93.931987 
L 955.624051 89.468104 
L 959.488862 85.310029 
L 963.353673 81.471358 
L 967.218483 77.964643 
L 971.083294 74.801349 
L 971.856256 74.210831 
L 971.856256 74.210831 
" clip-path="url(#pdebfaf399f)" style="fill: none; stroke: #ff7f0e; stroke-width: 1.5; stroke-linecap: square"/>
   </g>
   <g id="line2d_46">
    <path d="M 576.872619 62.846193 
L 579.964468 62.971686 
L 583.056316 63.347904 
L 586.148165 63.97406 
L 589.240013 64.848846 
L 592.331861 65.970435 
L 595.42371 67.336484 
L 598.515558 68.94414 
L 601.607407 70.790043 
L 604.699255 72.870339 
L 607.791104 75.180681 
L 611.655914 78.384715 
L 615.520725 81.930163 
L 619.385535 85.805456 
L 623.250346 89.997945 
L 627.115156 94.493947 
L 631.752929 100.269061 
L 636.390702 106.432917 
L 641.028474 112.95655 
L 646.439209 120.981189 
L 651.849944 129.402418 
L 658.03364 139.443112 
L 664.990299 151.169359 
L 673.492883 165.94542 
L 705.184329 221.488874 
L 712.140988 232.970332 
L 718.324685 242.736362 
L 723.73542 250.875056 
L 729.146154 258.579652 
L 733.783927 264.800655 
L 738.4217 270.637247 
L 742.28651 275.187582 
L 746.151321 279.437032 
L 750.016131 283.37173 
L 753.880942 286.978833 
L 757.745752 290.24657 
L 761.610563 293.164275 
L 764.702411 295.239978 
L 767.79426 297.081208 
L 770.886108 298.684119 
L 773.977956 300.045362 
L 777.069805 301.162094 
L 780.161653 302.031982 
L 783.253502 302.653208 
L 786.34535 303.024476 
L 789.437199 303.145009 
L 792.529047 303.014556 
L 795.620895 302.633389 
L 798.712744 302.002304 
L 801.804592 301.12262 
L 804.896441 299.996175 
L 807.988289 298.625321 
L 811.080138 297.012922 
L 814.171986 295.162346 
L 817.263834 293.077459 
L 820.355683 290.762617 
L 824.220493 287.553101 
L 828.085304 284.002344 
L 831.950114 280.121934 
L 835.814925 275.924536 
L 839.679735 271.42385 
L 844.317508 265.643433 
L 848.955281 259.474644 
L 853.593053 252.946471 
L 859.003788 244.91706 
L 864.414523 236.491655 
L 870.59822 226.446951 
L 877.554879 214.717203 
L 886.057462 199.93837 
L 916.975946 145.702264 
L 923.932605 134.173525 
L 930.116302 124.355223 
L 935.527037 116.163237 
L 940.937771 108.398652 
L 945.575544 102.12119 
L 950.213317 96.223767 
L 954.851089 90.734095 
L 958.7159 86.489516 
L 962.58071 82.559902 
L 966.445521 78.958076 
L 970.310331 75.695794 
L 971.856256 74.488377 
L 971.856256 74.488377 
" clip-path="url(#pdebfaf399f)" style="fill: none; stroke: #2ca02c; stroke-width: 1.5; stroke-linecap: square"/>
   </g>
   <g id="line2d_47">
    <path d="M 576.872619 62.846193 
L 579.964468 62.971626 
L 583.056316 63.347662 
L 586.148165 63.973517 
L 589.240013 64.847883 
L 592.331861 65.968935 
L 595.42371 67.334332 
L 598.515558 68.941224 
L 601.607407 70.786255 
L 604.699255 72.865573 
L 607.791104 75.174837 
L 611.655914 78.377387 
L 615.520725 81.921211 
L 619.385535 85.79475 
L 623.250346 89.985367 
L 627.115156 94.479393 
L 631.752929 100.252014 
L 636.390702 106.41327 
L 641.028474 112.934222 
L 646.439209 120.955668 
L 651.849944 129.373675 
L 658.03364 139.410712 
L 664.990299 151.132963 
L 673.492883 165.904451 
L 705.184329 221.436803 
L 712.140988 232.917632 
L 718.324685 242.683782 
L 723.73542 250.823137 
L 729.146154 258.528936 
L 733.783927 264.751413 
L 738.4217 270.589895 
L 742.28651 275.142126 
L 746.151321 279.393767 
L 750.016131 283.330947 
L 753.880942 286.940824 
L 757.745752 290.211623 
L 761.610563 293.132672 
L 764.702411 295.21125 
L 767.79426 297.055528 
L 770.886108 298.661656 
L 773.977956 300.026279 
L 777.069805 301.146548 
L 780.161653 302.020125 
L 783.253502 302.645185 
L 786.34535 303.020423 
L 789.437199 303.145057 
L 792.529047 303.018825 
L 795.620895 302.641991 
L 798.712744 302.015342 
L 801.804592 301.140187 
L 804.896441 300.018352 
L 807.988289 298.65218 
L 811.080138 297.044524 
L 814.171986 295.19874 
L 817.263834 293.118682 
L 820.355683 290.808693 
L 824.220493 287.605259 
L 828.085304 284.060579 
L 831.950114 280.186215 
L 835.814925 275.994806 
L 839.679735 271.500026 
L 844.317508 265.726549 
L 848.955281 259.564498 
L 853.593053 253.042813 
L 859.003788 245.020598 
L 864.414523 236.601918 
L 870.59822 226.564234 
L 877.554879 214.841417 
L 886.057462 200.06948 
L 917.748908 144.537871 
L 924.705567 133.057704 
L 930.889264 123.292284 
L 936.299999 115.153672 
L 941.710734 107.448708 
L 946.348506 101.227017 
L 950.986279 95.38938 
L 954.851089 90.837897 
L 958.7159 86.587041 
L 962.58071 82.650679 
L 966.445521 79.041652 
L 970.310331 75.771732 
L 971.856256 74.561142 
L 971.856256 74.561142 
" clip-path="url(#pdebfaf399f)" style="fill: none; stroke: #d62728; stroke-width: 1.5; stroke-linecap: square"/>
   </g>
   <g id="line2d_48">
    <path d="M 557.123438 182.995626 
L 991.605437 182.995626 
" clip-path="url(#pdebfaf399f)" style="fill: none; stroke: #808080; stroke-width: 0.5; stroke-linecap: square"/>
   </g>
   <g id="patch_9">
    <path d="M 557.123438 315.16 
L 557.123438 50.83125 
" style="fill: none; stroke: #000000; stroke-width: 0.8; stroke-linejoin: miter; stroke-linecap: square"/>
   </g>
   <g id="patch_10">
    <path d="M 991.605437 315.16 
L 991.605437 50.83125 
" style="fill: none; stroke: #000000; stroke-width: 0.8; stroke-linejoin: miter; stroke-linecap: square"/>
   </g>
   <g id="patch_11">
    <path d="M 557.123438 315.16 
L 991.605437 315.16 
" style="fill: none; stroke: #000000; stroke-width: 0.8; stroke-linejoin: miter; stroke-linecap: square"/>
   </g>
   <g id="patch_12">
    <path d="M 557.123438 50.83125 
L 991.605437 50.83125 
" style="fill: none; stroke: #000000; stroke-width: 0.8; stroke-linejoin: miter; stroke-linecap: square"/>
   </g>
   <g id="text_44">
    <!-- Ghost (1,1) -->
    <g transform="translate(740.633187 44.83125) scale(0.12 -0.12)">
     <defs>
      <path id="DejaVuSans-47" d="M 3809 666 
L 3809 1919 
L 2778 1919 
L 2778 2438 
L 4434 2438 
L 4434 434 
Q 4069 175 3628 42 
Q 3188 -91 2688 -91 
Q 1594 -91 976 548 
Q 359 1188 359 2328 
Q 359 3472 976 4111 
Q 1594 4750 2688 4750 
Q 3144 4750 3555 4637 
Q 3966 4525 4313 4306 
L 4313 3634 
Q 3963 3931 3569 4081 
Q 3175 4231 2741 4231 
Q 1884 4231 1454 3753 
Q 1025 3275 1025 2328 
Q 1025 1384 1454 906 
Q 1884 428 2741 428 
Q 3075 428 3337 486 
Q 3600 544 3809 666 
z
" transform="scale(0.015625)"/>
      <path id="DejaVuSans-68" d="M 3513 2113 
L 3513 0 
L 2938 0 
L 2938 2094 
Q 2938 2591 2744 2837 
Q 2550 3084 2163 3084 
Q 1697 3084 1428 2787 
Q 1159 2491 1159 1978 
L 1159 0 
L 581 0 
L 581 4863 
L 1159 4863 
L 1159 2956 
Q 1366 3272 1645 3428 
Q 1925 3584 2291 3584 
Q 2894 3584 3203 3211 
Q 3513 2838 3513 2113 
z
" transform="scale(0.015625)"/>
     </defs>
     <use xlink:href="#DejaVuSans-47"/>
     <use xlink:href="#DejaVuSans-68" transform="translate(77.490234 0)"/>
     <use xlink:href="#DejaVuSans-6f" transform="translate(140.869141 0)"/>
     <use xlink:href="#DejaVuSans-73" transform="translate(202.050781 0)"/>
     <use xlink:href="#DejaVuSans-74" transform="translate(254.150391 0)"/>
     <use xlink:href="#DejaVuSans-20" transform="translate(293.359375 0)"/>
     <use xlink:href="#DejaVuSans-28" transform="translate(325.146484 0)"/>
     <use xlink:href="#DejaVuSans-31" transform="translate(364.160156 0)"/>
     <use xlink:href="#DejaVuSans-2c" transform="translate(427.783203 0)"/>
     <use xlink:href="#DejaVuSans-31" transform="translate(459.570312 0)"/>
     <use xlink:href="#DejaVuSans-29" transform="translate(523.193359 0)"/>
    </g>
   </g>
   <g id="legend_2">
    <g id="patch_13">
     <path d="M 564.123438 310.16 
L 614.976562 310.16 
Q 616.976562 310.16 616.976562 308.16 
L 616.976562 250.4475 
Q 616.976562 248.4475 614.976562 248.4475 
L 564.123438 248.4475 
Q 562.123438 248.4475 562.123438 250.4475 
L 562.123438 308.16 
Q 562.123438 310.16 564.123438 310.16 
z
" style="fill: #ffffff; opacity: 0.8; stroke: #cccccc; stroke-linejoin: miter"/>
    </g>
    <g id="line2d_49">
     <path d="M 566.123438 256.545937 
L 576.123438 256.545937 
L 586.123438 256.545937 
" style="fill: none; stroke: #1f77b4; stroke-width: 1.5; stroke-linecap: square"/>
    </g>
    <g id="text_45">
     <!-- r=1 -->
     <g transform="translate(594.123438 260.045937) scale(0.1 -0.1)">
      <use xlink:href="#DejaVuSans-72"/>
      <use xlink:href="#DejaVuSans-3d" transform="translate(41.113281 0)"/>
      <use xlink:href="#DejaVuSans-31" transform="translate(124.902344 0)"/>
     </g>
    </g>
    <g id="line2d_50">
     <path d="M 566.123438 271.224062 
L 576.123438 271.224062 
L 586.123438 271.224062 
" style="fill: none; stroke: #ff7f0e; stroke-width: 1.5; stroke-linecap: square"/>
    </g>
    <g id="text_46">
     <!-- r=2 -->
     <g transform="translate(594.123438 274.724062) scale(0.1 -0.1)">
      <use xlink:href="#DejaVuSans-72"/>
      <use xlink:href="#DejaVuSans-3d" transform="translate(41.113281 0)"/>
      <use xlink:href="#DejaVuSans-32" transform="translate(124.902344 0)"/>
     </g>
    </g>
    <g id="line2d_51">
     <path d="M 566.123438 285.902187 
L 576.123438 285.902187 
L 586.123438 285.902187 
" style="fill: none; stroke: #2ca02c; stroke-width: 1.5; stroke-linecap: square"/>
    </g>
    <g id="text_47">
     <!-- r=4 -->
     <g transform="translate(594.123438 289.402187) scale(0.1 -0.1)">
      <use xlink:href="#DejaVuSans-72"/>
      <use xlink:href="#DejaVuSans-3d" transform="translate(41.113281 0)"/>
      <use xlink:href="#DejaVuSans-34" transform="translate(124.902344 0)"/>
     </g>
    </g>
    <g id="line2d_52">
     <path d="M 566.123438 300.580312 
L 576.123438 300.580312 
L 586.123438 300.580312 
" style="fill: none; stroke: #d62728; stroke-width: 1.5; stroke-linecap: square"/>
    </g>
    <g id="text_48">
     <!-- r=8 -->
     <g transform="translate(594.123438 304.080312) scale(0.1 -0.1)">
      <use xlink:href="#DejaVuSans-72"/>
      <use xlink:href="#DejaVuSans-3d" transform="translate(41.113281 0)"/>
      <use xlink:href="#DejaVuSans-38" transform="translate(124.902344 0)"/>
     </g>
    </g>
   </g>
  </g>
  <g id="text_49">
   <!-- Charge density profiles (proportional to cos(q_eff θ₂)) -->
   <g transform="translate(338.477313 16.411875) scale(0.12 -0.12)">
    <defs>
     <path id="DejaVuSans-43" d="M 4122 4306 
L 4122 3641 
Q 3803 3938 3442 4084 
Q 3081 4231 2675 4231 
Q 1875 4231 1450 3742 
Q 1025 3253 1025 2328 
Q 1025 1406 1450 917 
Q 1875 428 2675 428 
Q 3081 428 3442 575 
Q 3803 722 4122 1019 
L 4122 359 
Q 3791 134 3420 21 
Q 3050 -91 2638 -91 
Q 1578 -91 968 557 
Q 359 1206 359 2328 
Q 359 3453 968 4101 
Q 1578 4750 2638 4750 
Q 3056 4750 3426 4639 
Q 3797 4528 4122 4306 
z
" transform="scale(0.015625)"/>
     <path id="DejaVuSans-61" d="M 2194 1759 
Q 1497 1759 1228 1600 
Q 959 1441 959 1056 
Q 959 750 1161 570 
Q 1363 391 1709 391 
Q 2188 391 2477 730 
Q 2766 1069 2766 1631 
L 2766 1759 
L 2194 1759 
z
M 3341 1997 
L 3341 0 
L 2766 0 
L 2766 531 
Q 2569 213 2275 61 
Q 1981 -91 1556 -91 
Q 1019 -91 701 211 
Q 384 513 384 1019 
Q 384 1609 779 1909 
Q 1175 2209 1959 2209 
L 2766 2209 
L 2766 2266 
Q 2766 2663 2505 2880 
Q 2244 3097 1772 3097 
Q 1472 3097 1187 3025 
Q 903 2953 641 2809 
L 641 3341 
Q 956 3463 1253 3523 
Q 1550 3584 1831 3584 
Q 2591 3584 2966 3190 
Q 3341 2797 3341 1997 
z
" transform="scale(0.015625)"/>
     <path id="DejaVuSans-79" d="M 2059 -325 
Q 1816 -950 1584 -1140 
Q 1353 -1331 966 -1331 
L 506 -1331 
L 506 -850 
L 844 -850 
Q 1081 -850 1212 -737 
Q 1344 -625 1503 -206 
L 1606 56 
L 191 3500 
L 800 3500 
L 1894 763 
L 2988 3500 
L 3597 3500 
L 2059 -325 
z
" transform="scale(0.015625)"/>
     <path id="DejaVuSans-70" d="M 1159 525 
L 1159 -1331 
L 581 -1331 
L 581 3500 
L 1159 3500 
L 1159 2969 
Q 1341 3281 1617 3432 
Q 1894 3584 2278 3584 
Q 2916 3584 3314 3078 
Q 3713 2572 3713 1747 
Q 3713 922 3314 415 
Q 2916 -91 2278 -91 
Q 1894 -91 1617 61 
Q 1341 213 1159 525 
z
M 3116 1747 
Q 3116 2381 2855 2742 
Q 2594 3103 2138 3103 
Q 1681 3103 1420 2742 
Q 1159 2381 1159 1747 
Q 1159 1113 1420 752 
Q 1681 391 2138 391 
Q 2594 391 2855 752 
Q 3116 1113 3116 1747 
z
" transform="scale(0.015625)"/>
     <path id="DejaVuSans-66" d="M 2375 4863 
L 2375 4384 
L 1825 4384 
Q 1516 4384 1395 4259 
Q 1275 4134 1275 3809 
L 1275 3500 
L 2222 3500 
L 2222 3053 
L 1275 3053 
L 1275 0 
L 697 0 
L 697 3053 
L 147 3053 
L 147 3500 
L 697 3500 
L 697 3744 
Q 697 4328 969 4595 
Q 1241 4863 1831 4863 
L 2375 4863 
z
" transform="scale(0.015625)"/>
     <path id="DejaVuSans-71" d="M 947 1747 
Q 947 1113 1208 752 
Q 1469 391 1925 391 
Q 2381 391 2643 752 
Q 2906 1113 2906 1747 
Q 2906 2381 2643 2742 
Q 2381 3103 1925 3103 
Q 1469 3103 1208 2742 
Q 947 2381 947 1747 
z
M 2906 525 
Q 2725 213 2448 61 
Q 2172 -91 1784 -91 
Q 1150 -91 751 415 
Q 353 922 353 1747 
Q 353 2572 751 3078 
Q 1150 3584 1784 3584 
Q 2172 3584 2448 3432 
Q 2725 3281 2906 2969 
L 2906 3500 
L 3481 3500 
L 3481 -1331 
L 2906 -1331 
L 2906 525 
z
" transform="scale(0.015625)"/>
     <path id="DejaVuSans-5f" d="M 3263 -1063 
L 3263 -1509 
L -63 -1509 
L -63 -1063 
L 3263 -1063 
z
" transform="scale(0.015625)"/>
     <path id="DejaVuSans-3b8" d="M 2953 2219 
L 963 2219 
Q 1009 1284 1225 888 
Q 1494 400 1959 400 
Q 2428 400 2688 891 
Q 2916 1322 2953 2219 
z
M 2944 2750 
Q 2856 3638 2688 3950 
Q 2419 4444 1959 4444 
Q 1481 4444 1228 3956 
Q 1028 3563 969 2750 
L 2944 2750 
z
M 1959 4913 
Q 2709 4913 3138 4250 
Q 3566 3591 3566 2422 
Q 3566 1256 3138 594 
Q 2709 -72 1959 -72 
Q 1206 -72 781 594 
Q 353 1256 353 2422 
Q 353 3591 781 4250 
Q 1206 4913 1959 4913 
z
" transform="scale(0.015625)"/>
     <path id="DejaVuSans-2082" d="M 838 332 
L 2163 332 
L 2163 -24 
L 294 -24 
L 294 319 
Q 400 416 597 591 
Q 1672 1544 1672 1838 
Q 1672 2044 1509 2170 
Q 1347 2297 1081 2297 
Q 919 2297 728 2242 
Q 538 2188 313 2079 
L 313 2463 
Q 553 2551 761 2594 
Q 969 2638 1147 2638 
Q 1600 2638 1872 2432 
Q 2144 2226 2144 1888 
Q 2144 1454 1109 566 
Q 934 416 838 332 
z
" transform="scale(0.015625)"/>
    </defs>
    <use xlink:href="#DejaVuSans-43"/>
    <use xlink:href="#DejaVuSans-68" transform="translate(69.824219 0)"/>
    <use xlink:href="#DejaVuSans-61" transform="translate(133.203125 0)"/>
    <use xlink:href="#DejaVuSans-72" transform="translate(194.482422 0)"/>
    <use xlink:href="#DejaVuSans-67" transform="translate(233.845703 0)"/>
    <use xlink:href="#DejaVuSans-65" transform="translate(297.322266 0)"/>
    <use xlink:href="#DejaVuSans-20" transform="translate(358.845703 0)"/>
    <use xlink:href="#DejaVuSans-64" transform="translate(390.632812 0)"/>
    <use xlink:href="#DejaVuSans-65" transform="translate(454.109375 0)"/>
    <use xlink:href="#DejaVuSans-6e" transform="translate(515.632812 0)"/>
    <use xlink:href="#DejaVuSans-73" transform="translate(579.011719 0)"/>
    <use xlink:href="#DejaVuSans-69" transform="translate(631.111328 0)"/>
    <use xlink:href="#DejaVuSans-74" transform="translate(658.894531 0)"/>
    <use xlink:href="#DejaVuSans-79" transform="translate(698.103516 0)"/>
    <use xlink:href="#DejaVuSans-20" transform="translate(757.283203 0)"/>
    <use xlink:href="#DejaVuSans-70" transform="translate(789.070312 0)"/>
    <use xlink:href="#DejaVuSans-72" transform="translate(852.546875 0)"/>
    <use xlink:href="#DejaVuSans-6f" transform="translate(891.410156 0)"/>
    <use xlink:href="#DejaVuSans-66" transform="translate(952.591797 0)"/>
    <use xlink:href="#DejaVuSans-69" transform="translate(987.796875 0)"/>
    <use xlink:href="#DejaVuSans-6c" transform="translate(1015.580078 0)"/>
    <use xlink:href="#DejaVuSans-65" transform="translate(1043.363281 0)"/>
    <use xlink:href="#DejaVuSans-73" transform="translate(1104.886719 0)"/>
    <use xlink:href="#DejaVuSans-20" transform="translate(1156.986328 0)"/>
    <use xlink:href="#DejaVuSans-28" transform="translate(1188.773438 0)"/>
    <use xlink:href="#DejaVuSans-70" transform="translate(1227.787109 0)"/>
    <use xlink:href="#DejaVuSans-72" transform="translate(1291.263672 0)"/>
    <use xlink:href="#DejaVuSans-6f" transform="translate(1330.126953 0)"/>
    <use xlink:href="#DejaVuSans-70" transform="translate(1391.308594 0)"/>
    <use xlink:href="#DejaVuSans-6f" transform="translate(1454.785156 0)"/>
    <use xlink:href="#DejaVuSans-72" transform="translate(1515.966797 0)"/>
    <use xlink:href="#DejaVuSans-74" transform="translate(1557.080078 0)"/>
    <use xlink:href="#DejaVuSans-69" transform="translate(1596.289062 0)"/>
    <use xlink:href="#DejaVuSans-6f" transform="translate(1624.072266 0)"/>
    <use xlink:href="#DejaVuSans-6e" transform="translate(1685.253906 0)"/>
    <use xlink:href="#DejaVuSans-61" transform="translate(1748.632812 0)"/>
    <use xlink:href="#DejaVuSans-6c" transform="translate(1809.912109 0)"/>
    <use xlink:href="#DejaVuSans-20" transform="translate(1837.695312 0)"/>
    <use xlink:href="#DejaVuSans-74" transform="translate(1869.482422 0)"/>
    <use xlink:href="#DejaVuSans-6f" transform="translate(1908.691406 0)"/>
    <use xlink:href="#DejaVuSans-20" transform="translate(1969.873047 0)"/>
    <use xlink:href="#DejaVuSans-63" transform="translate(2001.660156 0)"/>
    <use xlink:href="#DejaVuSans-6f" transform="translate(2056.640625 0)"/>
    <use xlink:href="#DejaVuSans-73" transform="translate(2117.822266 0)"/>
    <use xlink:href="#DejaVuSans-28" transform="translate(2169.921875 0)"/>
    <use xlink:href="#DejaVuSans-71" transform="translate(2208.935547 0)"/>
    <use xlink:href="#DejaVuSans-5f" transform="translate(2272.412109 0)"/>
    <use xlink:href="#DejaVuSans-65" transform="translate(2322.412109 0)"/>
    <use xlink:href="#DejaVuSans-66" transform="translate(2383.935547 0)"/>
    <use xlink:href="#DejaVuSans-66" transform="translate(2419.140625 0)"/>
    <use xlink:href="#DejaVuSans-20" transform="translate(2454.345703 0)"/>
    <use xlink:href="#DejaVuSans-3b8" transform="translate(2486.132812 0)"/>
    <use xlink:href="#DejaVuSans-2082" transform="translate(2547.314453 0)"/>
    <use xlink:href="#DejaVuSans-29" transform="translate(2587.402344 0)"/>
    <use xlink:href="#DejaVuSans-29" transform="translate(2626.416016 0)"/>
   </g>
  </g>
 </g>
 <defs>
  <clipPath id="pa25b15fba8">
   <rect x="58.523438" y="50.83125" width="434.482" height="264.32875"/>
  </clipPath>
  <clipPath id="pdebfaf399f">
   <rect x="557.123438" y="50.83125" width="434.482" height="264.32875"/>
  </clipPath>
 </defs>
</svg>
