<svg xmlns="http://www.w3.org/2000/svg" width="650" height="350" style="background:#0a0a14;font-family:monospace">
<line x1="75" y1="305.0" x2="625" y2="305.0" stroke="#222" stroke-width="0.5"/>
<text x="70" y="309.0" fill="#999" font-size="10" text-anchor="end">0.0279</text>
<line x1="75" y1="237.5" x2="625" y2="237.5" stroke="#222" stroke-width="0.5"/>
<text x="70" y="241.5" fill="#999" font-size="10" text-anchor="end">0.04286</text>
<line x1="75" y1="170.0" x2="625" y2="170.0" stroke="#222" stroke-width="0.5"/>
<text x="70" y="174.0" fill="#999" font-size="10" text-anchor="end">0.05782</text>
<line x1="75" y1="102.5" x2="625" y2="102.5" stroke="#222" stroke-width="0.5"/>
<text x="70" y="106.5" fill="#999" font-size="10" text-anchor="end">0.07278</text>
<line x1="75" y1="35.0" x2="625" y2="35.0" stroke="#222" stroke-width="0.5"/>
<text x="70" y="39.0" fill="#999" font-size="10" text-anchor="end">0.08775</text>
<text x="75.0" y="320" fill="#999" font-size="10" text-anchor="middle">0.05</text>
<text x="212.5" y="320" fill="#999" font-size="10" text-anchor="middle">0.27</text>
<text x="350.0" y="320" fill="#999" font-size="10" text-anchor="middle">0.5</text>
<text x="487.5" y="320" fill="#999" font-size="10" text-anchor="middle">0.72</text>
<text x="625.0" y="320" fill="#999" font-size="10" text-anchor="middle">0.95</text>
<polyline points="75.0,286.4 90.3,254.9 105.6,229.2 120.8,207.6 136.1,189.0 151.4,173.0 166.7,159.0 181.9,146.8 197.2,136.2 212.5,126.8 227.8,118.6 243.1,111.4 258.3,105.1 273.6,99.4 288.9,94.4 304.2,90.0 319.4,86.0 334.7,82.5 350.0,79.3 365.3,76.5 380.6,74.0 395.8,71.6 411.1,69.6 426.4,67.7 441.7,65.9 456.9,64.4 472.2,62.9 487.5,61.6 502.8,60.4 518.1,59.3 533.3,58.3 548.6,57.4 563.9,56.5 579.2,55.7 594.4,55.0 609.7,54.3 625.0,53.6" fill="none" stroke="#ab47bc" stroke-width="2" opacity="0.9"/>
<line x1="75" y1="35" x2="75" y2="305" stroke="#555" stroke-width="1"/>
<line x1="75" y1="305" x2="625" y2="305" stroke="#555" stroke-width="1"/>
<text x="350.0" y="345" fill="#aaa" font-size="12" text-anchor="middle">ε</text>
<text x="12" y="170.0" fill="#aaa" font-size="12" text-anchor="middle" transform="rotate(-90,12,170.0)">shear s</text>
<text x="350.0" y="25" fill="#ccc" font-size="14" text-anchor="middle">Shear vs ε for α = 1/137 with q = 3−s</text>
<line x1="85" y1="50" x2="100" y2="50" stroke="#ab47bc" stroke-width="2"/>
<text x="105" y="54" fill="#bbb" font-size="10">shear s</text>
</svg>