<svg xmlns="http://www.w3.org/2000/svg" width="650" height="350" style="background:#0a0a14;font-family:monospace">
<line x1="75" y1="305.0" x2="625" y2="305.0" stroke="#222" stroke-width="0.5"/>
<text x="70" y="309.0" fill="#999" font-size="10" text-anchor="end">7.03e-02</text>
<line x1="75" y1="237.5" x2="625" y2="237.5" stroke="#222" stroke-width="0.5"/>
<text x="70" y="241.5" fill="#999" font-size="10" text-anchor="end">2.89e-01</text>
<line x1="75" y1="170.0" x2="625" y2="170.0" stroke="#222" stroke-width="0.5"/>
<text x="70" y="174.0" fill="#999" font-size="10" text-anchor="end">1.19e+00</text>
<line x1="75" y1="102.5" x2="625" y2="102.5" stroke="#222" stroke-width="0.5"/>
<text x="70" y="106.5" fill="#999" font-size="10" text-anchor="end">4.87e+00</text>
<line x1="75" y1="35.0" x2="625" y2="35.0" stroke="#222" stroke-width="0.5"/>
<text x="70" y="39.0" fill="#999" font-size="10" text-anchor="end">2.00e+01</text>
<text x="75.0" y="320" fill="#999" font-size="10" text-anchor="middle">0.05</text>
<text x="212.5" y="320" fill="#999" font-size="10" text-anchor="middle">0.27</text>
<text x="350.0" y="320" fill="#999" font-size="10" text-anchor="middle">0.5</text>
<text x="487.5" y="320" fill="#999" font-size="10" text-anchor="middle">0.72</text>
<text x="625.0" y="320" fill="#999" font-size="10" text-anchor="middle">0.95</text>
<polyline points="75.0,196.8 90.3,215.5 105.6,228.4 120.8,238.0 136.1,245.5 151.4,251.5 166.7,256.4 181.9,260.5 197.2,263.9 212.5,266.8 227.8,269.2 243.1,271.3 258.3,273.1 273.6,274.7 288.9,276.1 304.2,277.2 319.4,278.3 334.7,279.2 350.0,280.0 365.3,280.8 380.6,281.4 395.8,282.0 411.1,282.5 426.4,283.0 441.7,283.4 456.9,283.8 472.2,284.1 487.5,284.5 502.8,284.7 518.1,285.0 533.3,285.3 548.6,285.5 563.9,285.7 579.2,285.9 594.4,286.1 609.7,286.2 625.0,286.4" fill="none" stroke="#ff6e40" stroke-width="2" opacity="0.9"/>
<polyline points="75.0,53.6 90.3,91.7 105.6,118.4 120.8,138.7 136.1,154.9 151.4,168.3 166.7,179.5 181.9,189.2 197.2,197.7 212.5,205.1 227.8,211.7 243.1,217.6 258.3,223.0 273.6,227.8 288.9,232.3 304.2,236.4 319.4,240.1 334.7,243.6 350.0,246.9 365.3,250.0 380.6,252.8 395.8,255.5 411.1,258.1 426.4,260.5 441.7,262.8 456.9,265.0 472.2,267.1 487.5,269.1 502.8,271.0 518.1,272.8 533.3,274.6 548.6,276.3 563.9,277.9 579.2,279.5 594.4,281.0 609.7,282.5 625.0,283.9" fill="none" stroke="#4fc3f7" stroke-width="2" opacity="0.9"/>
<line x1="75" y1="35" x2="75" y2="305" stroke="#555" stroke-width="1"/>
<line x1="75" y1="305" x2="625" y2="305" stroke="#555" stroke-width="1"/>
<text x="350.0" y="345" fill="#aaa" font-size="12" text-anchor="middle">ε</text>
<text x="12" y="170.0" fill="#aaa" font-size="12" text-anchor="middle" transform="rotate(-90,12,170.0)">radius (fm)</text>
<text x="350.0" y="25" fill="#ccc" font-size="14" text-anchor="middle">Proton sheet dimensions vs ε</text>
<line x1="85" y1="50" x2="100" y2="50" stroke="#ff6e40" stroke-width="2"/>
<text x="105" y="54" fill="#bbb" font-size="10">a (tube radius)</text>
<line x1="85" y1="66" x2="100" y2="66" stroke="#4fc3f7" stroke-width="2"/>
<text x="105" y="70" fill="#bbb" font-size="10">R (ring radius)</text>
</svg>