<svg xmlns="http://www.w3.org/2000/svg" width="650" height="350" style="background:#0a0a14;font-family:monospace">
<line x1="75" y1="305.0" x2="625" y2="305.0" stroke="#222" stroke-width="0.5"/>
<text x="70" y="309.0" fill="#999" font-size="10" text-anchor="end">-1.947</text>
<line x1="75" y1="237.5" x2="625" y2="237.5" stroke="#222" stroke-width="0.5"/>
<text x="70" y="241.5" fill="#999" font-size="10" text-anchor="end">-1.309</text>
<line x1="75" y1="170.0" x2="625" y2="170.0" stroke="#222" stroke-width="0.5"/>
<text x="70" y="174.0" fill="#999" font-size="10" text-anchor="end">-0.6714</text>
<line x1="75" y1="102.5" x2="625" y2="102.5" stroke="#222" stroke-width="0.5"/>
<text x="70" y="106.5" fill="#999" font-size="10" text-anchor="end">-0.03357</text>
<line x1="75" y1="35.0" x2="625" y2="35.0" stroke="#222" stroke-width="0.5"/>
<text x="70" y="39.0" fill="#999" font-size="10" text-anchor="end">0.6043</text>
<text x="75.0" y="320" fill="#999" font-size="10" text-anchor="middle">0.05</text>
<text x="212.5" y="320" fill="#999" font-size="10" text-anchor="middle">0.27</text>
<text x="350.0" y="320" fill="#999" font-size="10" text-anchor="middle">0.5</text>
<text x="487.5" y="320" fill="#999" font-size="10" text-anchor="middle">0.72</text>
<text x="625.0" y="320" fill="#999" font-size="10" text-anchor="middle">0.95</text>
<polyline points="75.0,286.4 90.3,286.2 105.6,285.8 120.8,285.3 136.1,284.5 151.4,283.2 166.7,281.3 181.9,278.6 197.2,275.1 212.5,270.6 227.8,265.4 243.1,259.5 258.3,253.0 273.6,245.9 288.9,238.0 304.2,229.1 319.4,219.2 334.7,208.8 350.0,198.6 365.3,189.1 380.6,180.7 395.8,173.4 411.1,167.0 426.4,161.4 441.7,156.4 456.9,151.9 472.2,147.9 487.5,53.6 502.8,57.0 518.1,60.0 533.3,62.9 548.6,65.5 563.9,68.0 579.2,127.6 594.4,125.4 609.7,123.4 625.0,121.4" fill="none" stroke="#66bb6a" stroke-width="2" opacity="0.9"/>
<line x1="75" y1="35" x2="75" y2="305" stroke="#555" stroke-width="1"/>
<line x1="75" y1="305" x2="625" y2="305" stroke="#555" stroke-width="1"/>
<text x="350.0" y="345" fill="#aaa" font-size="12" text-anchor="middle">ε</text>
<text x="12" y="170.0" fill="#aaa" font-size="12" text-anchor="middle" transform="rotate(-90,12,170.0)">charge overlap C</text>
<text x="350.0" y="25" fill="#ccc" font-size="14" text-anchor="middle">Charge overlap of (1,3) vs ε</text>
<line x1="85" y1="50" x2="100" y2="50" stroke="#66bb6a" stroke-width="2"/>
<text x="105" y="54" fill="#bbb" font-size="10">C(1,3)</text>
</svg>