<svg xmlns="http://www.w3.org/2000/svg" width="650" height="350" style="background:#0a0a14;font-family:monospace">
<line x1="75" y1="305.0" x2="625" y2="305.0" stroke="#222" stroke-width="0.5"/>
<text x="70" y="309.0" fill="#999" font-size="10" text-anchor="end">-0.02775</text>
<line x1="75" y1="237.5" x2="625" y2="237.5" stroke="#222" stroke-width="0.5"/>
<text x="70" y="241.5" fill="#999" font-size="10" text-anchor="end">0.2482</text>
<line x1="75" y1="170.0" x2="625" y2="170.0" stroke="#222" stroke-width="0.5"/>
<text x="70" y="174.0" fill="#999" font-size="10" text-anchor="end">0.5242</text>
<line x1="75" y1="102.5" x2="625" y2="102.5" stroke="#222" stroke-width="0.5"/>
<text x="70" y="106.5" fill="#999" font-size="10" text-anchor="end">0.8002</text>
<line x1="75" y1="35.0" x2="625" y2="35.0" stroke="#222" stroke-width="0.5"/>
<text x="70" y="39.0" fill="#999" font-size="10" text-anchor="end">1.076</text>
<text x="75.0" y="320" fill="#999" font-size="10" text-anchor="middle">0.05</text>
<text x="212.5" y="320" fill="#999" font-size="10" text-anchor="middle">0.27</text>
<text x="350.0" y="320" fill="#999" font-size="10" text-anchor="middle">0.5</text>
<text x="487.5" y="320" fill="#999" font-size="10" text-anchor="middle">0.72</text>
<text x="625.0" y="320" fill="#999" font-size="10" text-anchor="middle">0.95</text>
<polyline points="75.0,53.6 90.3,53.6 105.6,53.6 120.8,53.6 136.1,53.6 151.4,53.6 166.7,53.6 181.9,53.6 197.2,53.6 212.5,53.6 227.8,53.6 243.1,53.6 258.3,53.6 273.6,53.6 288.9,53.6 304.2,53.6 319.4,53.6 334.7,53.6 350.0,53.6 365.3,53.6 380.6,53.6 395.8,53.6 411.1,53.6 426.4,53.6 441.7,53.6 456.9,53.6 472.2,53.6 487.5,53.6 502.8,53.6 518.1,53.6 533.3,53.6 548.6,53.6 563.9,53.6 579.2,53.6 594.4,53.6 609.7,53.6 625.0,53.6" fill="none" stroke="#4fc3f7" stroke-width="2" opacity="0.9"/>
<polyline points="75.0,284.2 90.3,284.5 105.6,284.8 120.8,285.0 136.1,285.2 151.4,285.4 166.7,285.6 181.9,285.7 197.2,285.8 212.5,285.9 227.8,286.0 243.1,286.1 258.3,286.2 273.6,286.2 288.9,286.3 304.2,286.3 319.4,286.4 334.7,283.1 350.0,267.8 365.3,236.7 380.6,193.1 395.8,147.9 411.1,110.9 426.4,85.4 441.7,70.0 456.9,61.4 472.2,57.1 487.5,55.0 502.8,54.1 518.1,53.8 533.3,53.7 548.6,53.6 563.9,53.6 579.2,53.6 594.4,53.6 609.7,53.6 625.0,53.6" fill="none" stroke="#ff6e40" stroke-width="2" opacity="0.9"/>
<polyline points="75.0,281.0 90.3,280.7 105.6,280.5 120.8,280.4 136.1,280.3 151.4,280.2 166.7,280.2 181.9,280.1 197.2,280.1 212.5,280.1 227.8,280.1 243.1,280.1 258.3,280.1 273.6,280.1 288.9,280.1 304.2,280.1 319.4,280.1 334.7,280.1 350.0,280.1 365.3,280.1 380.6,280.1 395.8,280.1 411.1,280.1 426.4,279.4 441.7,270.4 456.9,249.5 472.2,216.2 487.5,175.3 502.8,135.0 518.1,102.1 533.3,79.2 548.6,65.5 563.9,58.2 579.2,55.1 594.4,53.9 609.7,53.7 625.0,53.6" fill="none" stroke="#fdd835" stroke-width="2" opacity="0.9"/>
<line x1="75" y1="35" x2="75" y2="305" stroke="#555" stroke-width="1"/>
<line x1="75" y1="305" x2="625" y2="305" stroke="#555" stroke-width="1"/>
<text x="350.0" y="345" fill="#aaa" font-size="12" text-anchor="middle">ε (aspect ratio a/R)</text>
<text x="12" y="170.0" fill="#aaa" font-size="12" text-anchor="middle" transform="rotate(-90,12,170.0)">survival</text>
<text x="350.0" y="25" fill="#ccc" font-size="14" text-anchor="middle">Mode survival vs ε — 3 slots at 120°</text>
<line x1="85" y1="50" x2="100" y2="50" stroke="#4fc3f7" stroke-width="2"/>
<text x="105" y="54" fill="#bbb" font-size="10">(1,3) target</text>
<line x1="85" y1="66" x2="100" y2="66" stroke="#ff6e40" stroke-width="2"/>
<text x="105" y="70" fill="#bbb" font-size="10">(1,2) ghost</text>
<line x1="85" y1="82" x2="100" y2="82" stroke="#fdd835" stroke-width="2"/>
<text x="105" y="86" fill="#bbb" font-size="10">(1,1) ghost</text>
</svg>