<svg xmlns="http://www.w3.org/2000/svg" width="650" height="350" style="background:#0a0a14;font-family:monospace">
<line x1="75" y1="305.0" x2="625" y2="305.0" stroke="#222" stroke-width="0.5"/>
<text x="70" y="309.0" fill="#999" font-size="10" text-anchor="end">4.754e-05</text>
<line x1="75" y1="237.5" x2="625" y2="237.5" stroke="#222" stroke-width="0.5"/>
<text x="70" y="241.5" fill="#999" font-size="10" text-anchor="end">0.0004654</text>
<line x1="75" y1="170.0" x2="625" y2="170.0" stroke="#222" stroke-width="0.5"/>
<text x="70" y="174.0" fill="#999" font-size="10" text-anchor="end">0.0008832</text>
<line x1="75" y1="102.5" x2="625" y2="102.5" stroke="#222" stroke-width="0.5"/>
<text x="70" y="106.5" fill="#999" font-size="10" text-anchor="end">0.001301</text>
<line x1="75" y1="35.0" x2="625" y2="35.0" stroke="#222" stroke-width="0.5"/>
<text x="70" y="39.0" fill="#999" font-size="10" text-anchor="end">0.001719</text>
<text x="75.0" y="320" fill="#999" font-size="10" text-anchor="middle">0.1</text>
<text x="212.5" y="320" fill="#999" font-size="10" text-anchor="middle">0.32</text>
<text x="350.0" y="320" fill="#999" font-size="10" text-anchor="middle">1</text>
<text x="487.5" y="320" fill="#999" font-size="10" text-anchor="middle">3.2</text>
<text x="625.0" y="320" fill="#999" font-size="10" text-anchor="middle">10</text>
<polyline points="75.0,286.4 94.0,286.4 112.9,277.6 131.9,277.6 150.9,277.6 169.8,277.6 188.8,268.9 207.8,268.9 226.7,260.1 245.7,260.1 264.7,251.4 283.6,251.4 302.6,242.6 321.6,242.6 340.5,233.9 359.5,225.1 378.4,216.4 397.4,207.7 416.4,207.7 435.3,190.3 454.3,181.6 473.3,173.0 492.2,164.3 511.2,147.1 530.2,138.5 549.1,121.3 568.1,104.3 587.1,87.3 606.0,70.4 625.0,53.6" fill="none" stroke="#4fc3f7" stroke-width="2" opacity="0.9"/>
<line x1="75" y1="35" x2="75" y2="305" stroke="#555" stroke-width="1"/>
<line x1="75" y1="305" x2="625" y2="305" stroke="#555" stroke-width="1"/>
<text x="350.0" y="345" fill="#aaa" font-size="12" text-anchor="middle">h/w ratio</text>
<text x="12" y="170.0" fill="#aaa" font-size="12" text-anchor="middle" transform="rotate(-90,12,170.0)">charge leak frac</text>
<text x="350.0" y="25" fill="#ccc" font-size="14" text-anchor="middle">Charge leakage vs slot aspect ratio (ε=0.30)</text>
<line x1="85" y1="50" x2="100" y2="50" stroke="#4fc3f7" stroke-width="2"/>
<text x="105" y="54" fill="#bbb" font-size="10">Q_leak frac</text>
<line x1="75" y1="125.1" x2="625" y2="125.1" stroke="#4c4" stroke-width="1" stroke-dasharray="4,3"/>
<text x="627" y="129.1" fill="#4c4" font-size="9">α/2π</text>
</svg>