<svg xmlns="http://www.w3.org/2000/svg" width="650" height="350" style="background:#0a0a14;font-family:monospace">
<line x1="75" y1="305.0" x2="625" y2="305.0" stroke="#222" stroke-width="0.5"/>
<text x="70" y="309.0" fill="#999" font-size="10" text-anchor="end">0.001161</text>
<line x1="75" y1="237.5" x2="625" y2="237.5" stroke="#222" stroke-width="0.5"/>
<text x="70" y="241.5" fill="#999" font-size="10" text-anchor="end">0.001161</text>
<line x1="75" y1="170.0" x2="625" y2="170.0" stroke="#222" stroke-width="0.5"/>
<text x="70" y="174.0" fill="#999" font-size="10" text-anchor="end">0.001161</text>
<line x1="75" y1="102.5" x2="625" y2="102.5" stroke="#222" stroke-width="0.5"/>
<text x="70" y="106.5" fill="#999" font-size="10" text-anchor="end">0.001161</text>
<line x1="75" y1="35.0" x2="625" y2="35.0" stroke="#222" stroke-width="0.5"/>
<text x="70" y="39.0" fill="#999" font-size="10" text-anchor="end">0.001161</text>
<text x="75.0" y="320" fill="#999" font-size="10" text-anchor="middle">0.1</text>
<text x="212.5" y="320" fill="#999" font-size="10" text-anchor="middle">0.32</text>
<text x="350.0" y="320" fill="#999" font-size="10" text-anchor="middle">1</text>
<text x="487.5" y="320" fill="#999" font-size="10" text-anchor="middle">3.2</text>
<text x="625.0" y="320" fill="#999" font-size="10" text-anchor="middle">10</text>
<polyline points="75.0,35.0 94.0,305.0 112.9,305.0 131.9,35.0 150.9,305.0 169.8,35.0 188.8,305.0 207.8,35.0 226.7,305.0 245.7,305.0 264.7,35.0 283.6,35.0 302.6,35.0 321.6,305.0 340.5,305.0 359.5,305.0 378.4,305.0 397.4,305.0 416.4,35.0 435.3,35.0 454.3,305.0 473.3,305.0 492.2,305.0 511.2,305.0 530.2,305.0 549.1,305.0 568.1,35.0 587.1,305.0 606.0,305.0 625.0,35.0" fill="none" stroke="#ff6e40" stroke-width="2" opacity="0.9"/>
<line x1="75" y1="35" x2="75" y2="305" stroke="#555" stroke-width="1"/>
<line x1="75" y1="305" x2="625" y2="305" stroke="#555" stroke-width="1"/>
<text x="350.0" y="345" fill="#aaa" font-size="12" text-anchor="middle">h/w ratio</text>
<text x="12" y="170.0" fill="#aaa" font-size="12" text-anchor="middle" transform="rotate(-90,12,170.0)">δμ/μ</text>
<text x="350.0" y="25" fill="#ccc" font-size="14" text-anchor="middle">Moment enhancement vs slot aspect ratio (ε=0.30)</text>
<line x1="85" y1="50" x2="100" y2="50" stroke="#ff6e40" stroke-width="2"/>
<text x="105" y="54" fill="#bbb" font-size="10">δμ/μ</text>
<line x1="75" y1="170.0" x2="625" y2="170.0" stroke="#4c4" stroke-width="1" stroke-dasharray="4,3"/>
<text x="627" y="174.0" fill="#4c4" font-size="9">α/2π</text>
</svg>